<?xml version="1.0" encoding="UTF-8"?>
<!DOCTYPE svg PUBLIC "-//W3C//DTD SVG 1.1//EN" "http://www.w3.org/Graphics/SVG/1.1/DTD/svg11.dtd">
<!-- Creator: CorelDRAW X8 -->
<svg xmlns="http://www.w3.org/2000/svg" xml:space="preserve" width="1581px" height="240px" version="1.1" style="shape-rendering:geometricPrecision; text-rendering:geometricPrecision; image-rendering:optimizeQuality; fill-rule:evenodd; clip-rule:evenodd"
viewBox="0 0 1581 240"
 xmlns:xlink="http://www.w3.org/1999/xlink">
 <defs>
  <style type="text/css">
   <![CDATA[
    .str0 {stroke:white;stroke-width:0.900001}
    .fil17 {fill:#005BAA}
    .fil18 {fill:#005BAA}
    .fil12 {fill:#0065B2}
    .fil10 {fill:#006DBA}
    .fil33 {fill:#0071BD}
    .fil8 {fill:#0079C2}
    .fil32 {fill:#0088D1}
    .fil31 {fill:#00A4E4}
    .fil16 {fill:#1C3A3C}
    .fil4 {fill:#4F65AF}
    .fil36 {fill:#DCDDDF}
    .fil6 {fill:#DCDDDF}
    .fil55 {fill:white}
    .fil14 {fill:#005BAA;fill-rule:nonzero}
    .fil25 {fill:#006AB6;fill-rule:nonzero}
    .fil13 {fill:#0071BD;fill-rule:nonzero}
    .fil24 {fill:#0078C1;fill-rule:nonzero}
    .fil20 {fill:#0079C2;fill-rule:nonzero}
    .fil23 {fill:#0087CD;fill-rule:nonzero}
    .fil11 {fill:#0088D1;fill-rule:nonzero}
    .fil45 {fill:#0090D3;fill-rule:nonzero}
    .fil22 {fill:#0095D8;fill-rule:nonzero}
    .fil44 {fill:#009ADC;fill-rule:nonzero}
    .fil9 {fill:#00A4E4;fill-rule:nonzero}
    .fil49 {fill:#0167B1;fill-rule:nonzero}
    .fil48 {fill:#0171BA;fill-rule:nonzero}
    .fil47 {fill:#017BC2;fill-rule:nonzero}
    .fil46 {fill:#0186CB;fill-rule:nonzero}
    .fil30 {fill:#1C3A3C;fill-rule:nonzero}
    .fil35 {fill:#33B6E9;fill-rule:nonzero}
    .fil0 {fill:#4F65AE;fill-rule:nonzero}
    .fil1 {fill:#54BC7E;fill-rule:nonzero}
    .fil60 {fill:#5DC5EE;fill-rule:nonzero}
    .fil26 {fill:#91E2FF;fill-rule:nonzero}
    .fil43 {fill:#91E2FF;fill-rule:nonzero}
    .fil59 {fill:#92D8F3;fill-rule:nonzero}
    .fil54 {fill:#A4DEF5;fill-rule:nonzero}
    .fil5 {fill:#A5A09F;fill-rule:nonzero}
    .fil42 {fill:#A7E8FF;fill-rule:nonzero}
    .fil58 {fill:#B7E5F7;fill-rule:nonzero}
    .fil53 {fill:#B9E6F8;fill-rule:nonzero}
    .fil41 {fill:#BDEEFF;fill-rule:nonzero}
    .fil27 {fill:#C5ECFA;fill-rule:nonzero}
    .fil52 {fill:#C9ECF9;fill-rule:nonzero}
    .fil40 {fill:#D3F3FF;fill-rule:nonzero}
    .fil57 {fill:#D4F0FA;fill-rule:nonzero}
    .fil39 {fill:#E9F9FF;fill-rule:nonzero}
    .fil56 {fill:#EBF8FD;fill-rule:nonzero}
    .fil3 {fill:#EF3526;fill-rule:nonzero}
    .fil2 {fill:#FEE361;fill-rule:nonzero}
    .fil21 {fill:white;fill-rule:nonzero}
    .fil28 {fill:white;fill-rule:nonzero}
    .fil15 {fill:url(#id0)}
    .fil19 {fill:url(#id1)}
    .fil51 {fill:url(#id2)}
    .fil34 {fill:url(#id3)}
    .fil38 {fill:url(#id4)}
    .fil29 {fill:url(#id5)}
    .fil37 {fill:url(#id6)}
    .fil50 {fill:url(#id7)}
    .fil7 {fill:url(#id8)}
   ]]>
  </style>
  <linearGradient id="id0" gradientUnits="userSpaceOnUse" x1="1048.16" y1="171.737" x2="1097.05" y2="118.523">
   <stop offset="0" style="stop-opacity:1; stop-color:#00A4E4"/>
   <stop offset="0.219608" style="stop-opacity:1; stop-color:#00A4E4"/>
   <stop offset="0.741176" style="stop-opacity:1; stop-color:#0167B1"/>
   <stop offset="1" style="stop-opacity:1; stop-color:#0167B1"/>
  </linearGradient>
  <linearGradient id="id1" gradientUnits="userSpaceOnUse" x1="1121.95" y1="10.3652" x2="1114.21" y2="56.1523">
   <stop offset="0" style="stop-opacity:1; stop-color:#0079C2"/>
   <stop offset="0.239216" style="stop-opacity:1; stop-color:#0079C2"/>
   <stop offset="0.4" style="stop-opacity:1; stop-color:#00A4E4"/>
   <stop offset="0.65098" style="stop-opacity:1; stop-color:#005BAA"/>
   <stop offset="1" style="stop-opacity:1; stop-color:#005BAA"/>
  </linearGradient>
  <linearGradient id="id2" gradientUnits="userSpaceOnUse" xlink:href="#id0" x1="1396.94" y1="118.798" x2="1441.13" y2="88.0199">
  </linearGradient>
  <linearGradient id="id3" gradientUnits="userSpaceOnUse" xlink:href="#id0" x1="1295.57" y1="149.818" x2="1357.91" y2="106.397">
  </linearGradient>
  <linearGradient id="id4" gradientUnits="userSpaceOnUse" xlink:href="#id0" x1="1497.03" y1="148.904" x2="1559.38" y2="105.482">
  </linearGradient>
  <linearGradient id="id5" gradientUnits="userSpaceOnUse" x1="1277.8" y1="138.416" x2="1380.11" y2="125.394">
   <stop offset="0" style="stop-opacity:1; stop-color:#1C3A3C"/>
   <stop offset="0.0156863" style="stop-opacity:1; stop-color:#0E4A73"/>
   <stop offset="0.101961" style="stop-opacity:1; stop-color:#1C3A3C"/>
   <stop offset="0.14902" style="stop-opacity:1; stop-color:#005BAA"/>
   <stop offset="1" style="stop-opacity:1; stop-color:#005BAA"/>
  </linearGradient>
  <linearGradient id="id6" gradientUnits="userSpaceOnUse" xlink:href="#id5" x1="1475.05" y1="139.361" x2="1596.33" y2="127.667">
  </linearGradient>
  <linearGradient id="id7" gradientUnits="userSpaceOnUse" xlink:href="#id5" x1="1381.96" y1="111.553" x2="1470.93" y2="102.716">
  </linearGradient>
  <linearGradient id="id8" gradientUnits="userSpaceOnUse" xlink:href="#id5" x1="1024.41" y1="157.962" x2="1125.49" y2="138.542">
  </linearGradient>
 </defs>
 <g id="Layer_x0020_1">
  <metadata id="CorelCorpID_0Corel-Layer"/>
  <g id="_911070096">
   <g>
    <path class="fil0 str0" d="M12 92l0 53c0,3 1,4 2,6 1,1 3,2 5,2l46 0 6 0 96 0c4,0 6,3 6,7 0,4 -2,7 -6,7l-96 0 -6 0 -46 0c-6,0 -10,-3 -13,-7 -4,-3 -6,-9 -6,-15l0 -53 12 0z"/>
    <path class="fil1 str0" d="M852 145c0,5 -4,8 -8,8l-67 0c-3,0 -6,3 -6,7 0,4 3,7 6,7l69 0c10,-1 18,-10 18,-22l0 -30c0,-5 3,-10 8,-10l67 0c3,0 6,-3 6,-6 0,-4 -3,-7 -6,-7l-68 0c-11,0 -19,9 -19,21l0 32z"/>
    <path class="fil2 str0" d="M554 92c3,0 6,3 6,6 0,4 -3,7 -6,7l-135 0c-11,0 -20,11 -20,24 0,14 9,24 21,24 40,0 80,0 120,0 4,0 7,-4 7,-8 0,-5 -3,-9 -7,-9l-70 0c-3,0 -6,-3 -6,-7 0,-4 3,-7 6,-7l70 0c10,1 19,10 19,23 0,12 -9,21 -19,22l-121 0c-18,0 -32,-17 -32,-38 0,-20 14,-37 32,-37l135 0z"/>
    <path class="fil3 str0" d="M345 167l0 -54c0,-4 -3,-8 -7,-8l-121 0 0 0c-12,0 -21,11 -21,24 0,14 9,24 21,24l0 0 89 0c3,0 5,3 5,7 0,4 -2,7 -5,7l-89 0 0 0c-18,0 -33,-17 -33,-38 0,-20 15,-37 33,-37l0 0 121 0c10,0 19,9 19,21l0 54 -12 0z"/>
    <path class="fil4 str0" d="M620 105c-11,0 -20,11 -20,24 0,14 9,24 21,24l107 0c12,0 21,-10 21,-24 0,-13 -9,-24 -20,-24l-109 0zm1 62l0 0 0 0 -1 0 0 0c-17,0 -32,-17 -32,-38 0,-20 15,-37 32,-37l109 0c18,0 32,17 32,37 0,21 -14,38 -32,38l0 0 0 0 0 0 -1 0 -107 0z"/>
    <path class="fil5" d="M903 126l1 5 -1 0c0,-1 0,-1 0,-2 -1,0 -1,-1 -2,-1 0,0 -1,-1 -2,-1l-2 0 0 18c0,1 0,2 0,2 0,1 1,1 2,1l0 0 0 0 -8 0 0 0 1 0c1,0 1,0 2,-1 0,0 0,-1 0,-2l0 -18 -2 0c-1,0 -2,1 -2,1 -1,0 -1,0 -2,1 0,0 0,1 0,2l-1 0 0 -5 16 0zm13 22l-7 -18 0 15c0,1 0,2 0,2 0,1 1,1 2,1l1 0 0 0 -7 0 0 0 0 0c1,0 2,0 2,-1 0,0 0,-1 0,-2l0 -15c0,-1 0,-2 0,-2 0,-1 0,-1 -1,-1 0,0 -1,0 -1,0l0 -1 5 0 7 18 7 -18 6 0 0 1 -1 0c-1,0 -1,0 -2,1 0,0 0,1 0,2l0 15c0,1 0,2 0,2 1,1 1,1 2,1l1 0 0 0 -9 0 0 0 1 0c1,0 2,0 2,-1 0,0 0,-1 0,-2l0 -15 -7 18 -1 0z"/>
   </g>
   <g>
    <path class="fil6" d="M1043 11c22,4 43,9 64,13 22,5 43,9 65,14 22,5 37,8 53,23 4,4 6,7 7,10 6,12 8,25 8,38 -1,12 -1,21 -8,32 -13,21 -32,23 -54,27 -11,1 -24,4 -35,0l-6 -2c-6,-8 -4,-17 6,-22 7,-3 21,-4 30,-5 26,-3 25,-22 23,-44 -1,-8 -9,-16 -17,-19 -13,-5 -26,-6 -39,-8 -27,-3 -55,-7 -82,-10 -14,-2 -25,-3 -38,-9 -11,-8 -16,-22 -5,-32 7,-9 18,-8 28,-6z"/>
    <path class="fil6" d="M1119 153c2,12 8,43 7,53 -2,13 -11,24 -23,29 -19,9 -38,6 -51,-12 -7,-14 -10,-38 -13,-55 -4,-19 -8,-38 -12,-57 -3,-21 7,-35 28,-39 19,-3 35,5 48,18 2,2 5,8 6,10l1 2c4,14 6,36 9,51z"/>
    <path class="fil6" d="M1373 139c2,14 7,50 6,62 -3,15 -13,27 -24,33 -20,9 -40,5 -51,-17 -7,-17 -9,-46 -11,-65 -3,-23 -7,-46 -9,-68 -3,-25 7,-41 28,-44 20,-3 35,8 48,24 2,2 5,9 6,12l0 3c4,16 6,42 7,60z"/>
    <path class="fil7" d="M1112 146c2,12 9,42 8,52 -2,13 -12,24 -23,30 -19,9 -39,5 -51,-12 -7,-15 -10,-39 -14,-55 -3,-19 -8,-39 -11,-58 -4,-21 6,-34 27,-38 19,-4 35,4 48,18 2,1 5,7 7,10l0 2c5,14 7,36 9,51z"/>
    <path class="fil8" d="M1082 213c4,-1 7,-2 11,-4 2,-1 6,-5 6,-7l1 -9 18 0 0 9c0,10 -8,19 -16,23 -13,8 -30,9 -43,1l-1 -1 0 0c-3,-3 -4,-5 -6,-8l-10 -22 22 10c3,1 5,1 8,1l9 -1 1 8z"/>
    <path class="fil9" d="M1082 212c2,0 4,-1 5,-1 2,-1 4,-2 5,-2 1,-1 3,-3 5,-4 1,-1 2,-2 2,-3l0 -10 20 0 0 10c0,5 -2,9 -5,13 -3,5 -7,8 -12,11 -7,4 -14,6 -22,6 -7,0 -15,-2 -21,-6l-1 0 0 0 -1 -1c-1,-1 -2,-2 -3,-3 -1,-2 -2,-3 -3,-5l-10 -22 1 -1 23 10c1,1 2,1 3,1 1,0 3,0 4,0l10 -1 0 8zm6 0c-2,1 -4,1 -6,1l-1 1 -1 -8 -8 1c-1,0 -3,0 -4,0 -1,-1 -3,-1 -4,-1l-21 -10 10 21c1,1 1,3 2,4 1,1 2,2 3,3l1 1 1 0c6,4 13,6 20,6 7,-1 15,-3 21,-6 5,-3 9,-6 12,-11 2,-3 4,-7 4,-12l0 -8 -17 -1 0 9c0,1 -1,3 -2,4 -2,2 -4,3 -5,4 -2,1 -4,2 -5,2z"/>
    <path class="fil10" d="M1079 216c5,0 11,-1 15,-4 3,-2 8,-6 8,-10l1 -6 12 0 0 6c0,9 -7,16 -15,21 -12,6 -27,8 -39,0l-1 0 0 -1c-2,-2 -4,-3 -5,-6l-7 -15 15 7c3,1 6,1 9,1l6 -1 1 8z"/>
    <path class="fil11" d="M1080 215c2,0 4,0 6,-1 3,0 5,-1 8,-3 1,-1 4,-3 6,-5 1,-1 2,-3 2,-4l0 -7 14 0 0 7c-1,4 -2,8 -5,12 -2,4 -6,7 -10,9 -7,4 -14,6 -21,6 -7,0 -14,-2 -20,-5l0 -1 0 0 -1 0c-1,-1 -2,-2 -3,-3 0,-1 -1,-2 -2,-4l-7 -15 1 -1 15 7c2,1 3,1 5,1 1,0 3,0 4,0l7 0 1 7zm7 1c-3,0 -5,1 -8,1l-1 0 0 -8 -6 1c-1,0 -3,0 -5,0 -1,-1 -3,-1 -4,-2l-13 -6 6 14c0,1 1,2 2,3 0,1 1,2 2,3l1 0 0 0c6,4 12,6 19,5 7,0 14,-2 20,-5 4,-2 7,-5 10,-9 2,-3 4,-7 4,-11l0 -5 -11 0 0 5c0,2 -1,4 -2,5 -2,3 -5,5 -7,6 -2,1 -4,2 -7,3z"/>
    <path class="fil12" d="M1073 218c7,2 16,0 23,-3 4,-3 9,-8 10,-13l0 -3 6 0 0 3c0,8 -7,14 -13,18 -11,6 -26,7 -36,1l-1 -1 0 0c-2,-2 -3,-3 -4,-5l-4 -8 8 3c3,2 7,2 10,2l3 0 1 6 -3 0c0,0 0,0 0,0z"/>
    <path class="fil13" d="M1077 218c2,0 5,0 7,0 4,-1 8,-2 11,-4 3,-1 5,-3 7,-6 2,-2 3,-4 3,-6l0 -4 8 0 -1 4c0,4 -1,7 -3,10 -3,4 -6,7 -10,9 -6,3 -12,5 -19,5 -6,0 -13,-1 -18,-5l0 0 0 0 -1 0c0,-1 -1,-2 -2,-3 -1,-1 -1,-2 -2,-3l-3 -8 1 -1 7 4c2,0 3,1 5,1 2,0 4,0 5,0l4 0 1 7zm7 1c-4,1 -8,1 -12,0l1 -2c0,0 1,0 2,0l0 -4 -3 0c-1,0 -3,0 -5,0 -2,-1 -4,-1 -6,-2l-5 -2 2 5c1,1 2,2 2,3 1,1 2,2 3,3l0 0 0 0c5,3 11,4 17,4 6,0 13,-2 18,-5 4,-2 7,-4 9,-8 2,-3 4,-6 4,-9l0 -2 -5 0 0 2c0,2 -1,5 -3,7 -2,3 -5,5 -7,6 -4,2 -8,4 -12,4z"/>
    <path class="fil14" d="M1109 202c0,3 -1,6 -3,9 -2,2 -5,5 -8,7 -6,3 -12,5 -18,5 -6,0 -12,-2 -16,-4l0 -1 -1 0c-1,-1 -2,-2 -3,-4l1 -1c1,0 3,1 5,1 2,0 4,0 7,0l0 2c-3,0 -5,0 -7,0 -1,-1 -3,-1 -4,-1 1,1 2,1 2,2l1 0c4,3 9,4 15,4 6,0 11,-1 17,-4 3,-2 6,-5 8,-7 2,-3 3,-5 3,-8l1 0z"/>
    <path class="fil15" d="M1106 143c2,11 7,38 6,46 -1,12 -9,21 -18,26 -11,6 -23,4 -33,-3l-8 -7c-5,-13 -8,-34 -10,-48 -3,-17 -7,-34 -9,-51 -3,-18 5,-30 21,-33 15,-4 28,4 38,15 2,1 5,7 5,9l1 2c4,12 5,31 7,44z"/>
    <path class="fil16" d="M1371 163c1,8 2,19 1,28 -3,35 -40,55 -69,28 -13,-15 -13,-47 -15,-66 -3,-22 -6,-43 -9,-65 -3,-21 -4,-40 18,-51 19,-10 38,-2 52,12 10,13 9,15 13,31l9 83z"/>
    <path class="fil16" d="M1447 107c1,14 3,28 3,41 0,10 -5,20 -13,26 -8,7 -20,7 -29,0l-6 -5c-5,-10 -7,-37 -9,-50 -2,-17 -4,-35 -7,-52 0,-6 1,-7 -5,-10 -3,-1 -8,-3 -11,-4 -9,-4 -3,-10 3,-12 6,-2 16,-3 23,-4 15,-2 27,0 38,11 1,1 2,2 3,4 3,4 4,7 5,12 1,2 1,3 1,5 1,3 1,5 1,7 1,4 1,8 1,12 1,6 1,12 2,18 0,0 0,1 0,1z"/>
    <path class="fil17" d="M1041 1c22,5 43,9 64,14 22,4 43,9 65,13 22,6 37,9 53,24 4,3 6,7 7,9 6,12 8,25 8,38 -1,13 -1,21 -8,32 -13,22 -32,24 -54,27 -11,2 -24,5 -35,1l-6 -3c-6,-8 -4,-17 6,-21 7,-3 21,-4 30,-5 26,-4 25,-23 23,-44 -1,-8 -9,-17 -17,-19 -13,-5 -26,-6 -39,-8 -27,-4 -55,-7 -82,-11 -14,-2 -25,-2 -38,-9 -11,-7 -16,-21 -5,-32 8,-8 18,-8 28,-6z"/>
    <path class="fil18" d="M1211 107c0,-23 -12,-38 -19,-41 -13,-5 -36,-7 -49,-9 -27,-4 -47,-7 -74,-10 -14,-2 -28,-2 -41,-9 -7,-5 -10,-9 -8,-20l200 41 -9 48z"/>
    <path class="fil14" d="M1209 107c0,-10 -2,-18 -5,-25 -4,-8 -9,-13 -13,-15l0 0c-10,-3 -27,-6 -41,-8 -2,0 -5,0 -7,-1 -20,-3 -37,-5 -55,-7 -6,-1 -13,-2 -20,-3 -3,0 -6,0 -9,-1 -11,-1 -21,-2 -31,-7l-1 0c-4,-3 -6,-6 -8,-9 -1,-3 -2,-7 -1,-13l0 -2c68,14 136,28 204,42l-10 49 -3 0zm-2 -26c2,4 3,9 4,14l7 -35 -197 -40c0,4 0,7 1,10 1,2 4,4 7,7 10,5 20,6 31,7 3,0 6,1 9,1 7,1 13,2 20,3 18,2 34,4 54,7 3,1 5,1 8,1 13,2 30,4 41,8 5,2 11,8 15,17z"/>
    <path class="fil18" d="M1044 4c21,5 42,9 64,14 21,4 37,8 59,12 21,5 38,7 55,23 2,1 7,7 9,9 5,12 5,25 5,38 -1,12 0,18 -7,29 -22,21 -10,15 -46,25 -19,3 -32,4 -35,-1l-6 -2c-6,-8 1,-9 11,-14 7,-3 27,-6 35,-7 27,-4 25,-23 23,-44 -1,-8 -11,-22 -18,-25 -13,-4 -34,-6 -48,-8 -27,-4 -49,-6 -77,-10 -14,-2 -24,-2 -37,-9 -14,-9 -14,-35 13,-30z"/>
    <path class="fil19" d="M1048 12c22,4 35,6 57,10 25,5 167,37 80,30 -13,-3 -29,-4 -40,-6 -29,-4 -52,-7 -81,-10 -14,-2 -15,-2 -33,-6 -14,-8 -11,-24 17,-18z"/>
    <polygon class="fil9" points="1219,90 1219,90 1220,90 1220,90 "/>
    <path class="fil20" d="M1186 60c-9,-2 -21,-4 -32,-5 -3,-1 -6,-1 -9,-1 -16,-3 -31,-5 -46,-6 -10,-2 -20,-3 -31,-4 -2,-1 -4,-1 -6,-1 -11,-1 -21,-2 -32,-8l1 -1c11,5 20,6 31,7 2,1 4,1 7,1 10,2 20,3 30,4 15,2 30,4 46,6 3,0 6,1 10,1 10,2 22,3 32,6l-1 1z"/>
    <path class="fil21" d="M1032 33c0,1 0,2 0,3 -1,0 -2,1 -2,0 -5,-4 -9,-9 -10,-15 0,-3 0,-6 1,-9 1,-3 3,-5 6,-7 4,-2 9,-3 17,-1 12,2 24,4 35,7 10,2 20,4 29,6 7,1 14,3 22,4 23,4 49,9 68,16 7,2 13,5 18,9 6,4 10,9 14,15 0,1 0,2 -1,2 -1,1 -2,0 -2,0 -3,-6 -8,-11 -13,-14 -5,-4 -11,-7 -17,-9 -18,-7 -44,-11 -67,-16 -8,-1 -16,-3 -23,-4 -9,-2 -19,-4 -28,-6 -12,-2 -24,-5 -36,-7 -7,-2 -11,-1 -15,1 -2,1 -3,3 -4,5 -1,2 -1,5 0,7 0,5 3,10 8,13z"/>
    <path class="fil9" d="M1208 107c0,1 0,1 -1,1 -1,0 -2,0 -2,-1 0,-10 -2,-17 -5,-24 -4,-8 -10,-13 -14,-14l0 0c-10,-4 -25,-6 -37,-7 -5,0 -9,-1 -12,-1 -20,-3 -37,-5 -55,-8 -6,-1 -13,-2 -20,-3 -2,0 -4,0 -7,0 -11,-2 -20,-3 -31,-8l0 0c-4,-3 -7,-6 -9,-10 -2,-4 -3,-8 -2,-14 0,-1 1,-1 2,-1 0,0 1,1 1,2 -1,4 0,8 1,11 2,4 5,6 9,9 10,5 19,6 30,7 2,1 4,1 7,1 7,1 13,2 20,3 18,2 35,5 54,7 4,1 8,1 12,2 13,1 28,3 38,7l0 0c5,1 11,7 16,16 3,7 5,15 5,25z"/>
    <path class="fil20" d="M1211 107c0,1 -1,2 -2,2 -1,0 -2,-1 -2,-2 0,-10 -2,-18 -5,-24 -4,-9 -10,-14 -14,-15l0 0c-9,-4 -24,-6 -37,-7 -4,-1 -8,-1 -12,-2 -20,-3 -36,-5 -54,-7 -7,-1 -13,-2 -20,-3 -3,0 -5,0 -8,-1 -11,-1 -21,-2 -32,-8l0 0c-4,-3 -7,-5 -9,-9 -1,-3 -2,-7 -1,-13 0,-1 1,-2 2,-2 1,0 2,1 2,3 -1,4 0,8 1,10 1,3 4,5 7,8 11,5 20,6 31,7 2,1 5,1 7,1 7,1 14,2 20,3 19,2 35,5 55,7 3,1 7,1 12,2 12,1 28,3 37,7l0 0c5,1 12,8 16,17 4,7 6,16 6,26z"/>
    <path class="fil9" d="M1229 68c0,-1 1,-2 1,-2 1,-1 2,0 2,1 2,4 4,10 5,15 1,6 2,12 2,17l0 0c0,7 0,12 -1,17 -1,5 -3,10 -7,16l0 0c-15,20 -24,21 -48,26 -2,1 -5,1 -7,2l0 0c0,0 -1,0 -2,0 -13,2 -34,5 -36,-13 -1,-1 0,-1 1,-1 1,-1 2,0 2,1 2,14 21,11 32,10 1,0 2,0 3,-1 3,0 5,-1 7,-1 23,-5 32,-6 46,-24 3,-6 5,-11 6,-15 1,-5 1,-11 1,-17 0,-5 -1,-10 -2,-16 -1,-5 -3,-11 -5,-15z"/>
    <path class="fil20" d="M1230 71c-1,-1 0,-2 1,-2 1,-1 2,0 2,1 2,5 3,10 4,15 1,4 1,9 1,15l0 0c0,6 -1,11 -2,16 -1,5 -3,10 -6,15l0 1c-14,18 -24,20 -47,24 -2,1 -5,2 -6,2l-1 0 -2 0c-12,2 -32,5 -35,-11 0,-1 0,-2 1,-2 1,-1 2,0 3,1 2,12 20,10 31,8 0,0 1,0 2,0 3,-1 5,-1 7,-1 22,-5 30,-6 44,-24 3,-5 4,-9 5,-14 1,-5 2,-10 2,-16 0,-4 0,-9 -1,-14 -1,-5 -2,-9 -3,-14z"/>
    <path class="fil9" d="M1063 214c0,0 0,-1 0,-1 0,-1 0,-1 1,-1 9,2 17,3 23,1 5,-1 9,-3 12,-6 3,-3 5,-6 6,-10 1,-3 1,-7 0,-10l0 -1 -15 -87c-1,-6 -3,-11 -7,-15 -3,-4 -8,-7 -14,-9 -1,0 -1,0 -1,-1 0,0 1,-1 1,-1 7,2 12,5 16,9 4,5 6,10 7,16l15 88c1,4 1,8 0,12 -1,3 -3,7 -7,10 -3,3 -7,6 -12,7 -7,2 -15,2 -25,-1z"/>
    <path class="fil22" d="M1067 215c-1,0 -1,0 -1,-1 0,-1 1,-1 2,-1 7,2 14,2 19,1 6,-1 10,-4 13,-7 4,-3 6,-7 7,-11 0,-3 0,-6 0,-9 -6,-29 -11,-59 -15,-89 -1,-6 -4,-10 -8,-14 -3,-4 -9,-7 -15,-9 -1,0 -1,-1 -1,-1 0,-1 1,-1 2,-1 7,2 12,5 16,9 4,4 7,10 8,16l0 0 15 88c1,4 1,7 0,11 -1,4 -3,8 -7,12 -3,3 -8,6 -14,7 -6,1 -13,1 -21,-1z"/>
    <path class="fil23" d="M1071 217c-1,0 -2,-1 -2,-1 1,-1 1,-2 2,-2 6,1 12,1 16,0 6,-1 11,-3 15,-7 3,-3 5,-8 6,-12 0,-3 0,-6 0,-8l0 0 0 0 -15 -88c-1,-7 -4,-11 -7,-15 -4,-4 -10,-7 -17,-9 -1,0 -1,-1 -1,-2 0,0 1,-1 2,-1 7,2 13,5 17,10 5,4 8,9 9,16l15 88 0 0c0,3 0,6 0,9 -1,5 -3,10 -7,14 -4,4 -9,7 -16,8 -5,1 -11,1 -17,0z"/>
    <path class="fil24" d="M1074 219c-1,0 -1,-1 -1,-2 0,-1 1,-1 2,-1 4,0 8,0 11,-1 8,-1 13,-4 17,-8 4,-4 6,-9 7,-14 0,-2 0,-4 -1,-7 -4,-29 -10,-58 -14,-88 -2,-6 -4,-11 -8,-14 -5,-4 -10,-7 -18,-9 0,0 -1,-1 -1,-2 0,-1 1,-1 2,-1 8,2 14,5 19,9 4,5 7,10 9,17 0,0 0,0 0,0 5,29 9,59 14,88 1,2 1,5 1,7 -1,6 -3,12 -7,17 -5,4 -11,7 -19,9 -4,0 -8,0 -13,0z"/>
    <path class="fil25" d="M1078 221c-1,0 -2,-1 -2,-2 0,-1 1,-2 2,-2 2,0 5,0 7,0 9,-2 15,-5 20,-9 4,-5 6,-11 6,-18 0,-1 0,-2 0,-3l-15 -89c-1,-6 -4,-11 -8,-14 -5,-4 -11,-7 -18,-9 -1,0 -2,-1 -2,-2 1,-1 2,-2 3,-2 8,2 14,6 19,10 5,4 8,10 9,17l1 0 14 88 0 0 0 0c0,1 0,3 0,4 1,8 -2,15 -7,20 -5,5 -12,9 -22,10 -2,0 -4,1 -7,1z"/>
    <path class="fil14" d="M1082 222c-1,0 -2,0 -2,-1 -1,-2 0,-3 1,-3 11,-1 20,-4 25,-10 5,-5 7,-13 6,-22l-15 -87c-1,-7 -4,-12 -8,-15 -5,-4 -11,-7 -19,-9 -1,0 -2,-2 -2,-3 1,-1 2,-1 3,-1 8,2 15,5 20,10 5,4 9,10 10,17l0 0 15 88 0 0c1,10 -1,19 -8,25 -5,6 -14,10 -26,11z"/>
    <path class="fil9" d="M1088 218c1,0 1,1 1,2 0,1 -1,1 -2,1 -8,-1 -15,-6 -21,-14 -5,-8 -8,-18 -10,-32 -10,-54 -17,-81 -17,-81 0,0 0,-1 0,-1 0,-3 2,-7 5,-10 3,-3 8,-6 12,-7 5,-1 10,-1 15,-1 5,1 10,3 14,5 0,0 1,1 2,1 6,3 14,8 18,19 1,1 0,2 -1,2 -1,1 -1,0 -2,-1 -3,-10 -11,-14 -16,-17 -1,0 -2,-1 -3,-1 0,0 0,0 0,0 -3,-2 -8,-4 -12,-4 -5,-1 -10,-1 -14,0 -4,1 -8,3 -11,6 -2,2 -4,5 -3,8 0,2 6,29 16,81l0 0c2,14 5,24 10,31 5,8 11,12 19,13z"/>
    <path class="fil26" d="M1086 218c1,0 2,1 2,1 0,1 -1,2 -2,2 -9,-2 -16,-6 -21,-14 -5,-8 -9,-18 -11,-33 -10,-54 -17,-80 -17,-80 0,-1 0,-1 0,-1 0,-4 2,-7 6,-11 4,-3 10,-6 15,-7 4,-1 9,-1 14,0 6,0 11,2 15,4l0 0c4,2 7,4 11,8 3,3 6,8 8,14 1,1 0,2 0,2 -1,0 -2,0 -2,-1 -3,-6 -6,-10 -9,-13 -3,-3 -6,-5 -9,-7 0,0 0,0 0,0 -4,-2 -9,-4 -14,-4 -5,-1 -10,-1 -14,0 -4,1 -9,4 -13,7 -3,2 -5,5 -5,8 1,2 7,28 17,81l0 0 0 0c2,14 6,24 10,31 5,7 12,11 19,13z"/>
    <path class="fil27" d="M1084 217c1,0 2,1 2,2 -1,1 -1,2 -2,1 -8,-1 -15,-5 -21,-13 -5,-7 -9,-18 -11,-33 -11,-55 -17,-80 -17,-80 0,-1 0,-1 0,-1 0,-4 2,-8 6,-11 4,-4 10,-7 14,-9 5,-1 10,-1 15,0 5,1 11,2 15,4l0 0c4,2 8,4 11,8 4,3 7,7 10,13 0,0 0,1 -1,2 -1,0 -2,0 -2,-1 -3,-5 -6,-9 -9,-12 -3,-3 -7,-5 -10,-7l0 0c-4,-2 -9,-3 -14,-4 -5,-1 -10,0 -14,1 -4,1 -9,3 -13,7 -3,3 -5,6 -5,9 1,2 7,28 17,80l0 0c2,15 6,26 11,33 5,6 11,10 18,11z"/>
    <path class="fil21" d="M1082 217c1,0 2,1 1,2 0,1 -1,1 -2,1 -8,-2 -14,-5 -20,-13 -5,-7 -9,-18 -11,-34l0 0c-11,-54 -17,-79 -17,-80 0,0 0,0 0,0l0 0c0,-4 2,-8 6,-12 4,-4 10,-8 14,-9 5,-1 10,-1 15,-1 5,1 10,2 15,4l0 0c4,2 8,4 12,7 4,4 7,8 10,12 0,1 0,2 -1,3 -1,0 -2,0 -2,-1 -2,-5 -6,-8 -9,-11 -4,-3 -7,-5 -11,-7l0 0c-5,-2 -9,-3 -14,-3 -5,-1 -10,-1 -14,0 -4,1 -9,4 -13,8 -3,3 -5,7 -5,10 1,2 6,27 17,79l0 0 0 0c2,16 6,27 11,34 5,6 11,9 18,11z"/>
    <path class="fil28" d="M1080 216c1,1 1,1 1,2 0,1 -1,2 -2,2 -8,-2 -14,-5 -20,-13 -5,-7 -9,-17 -12,-35 -10,-54 -16,-79 -16,-79 0,0 0,0 0,0l0 0c-1,-4 2,-9 5,-13 5,-4 11,-8 15,-9 5,-1 10,-2 15,-1 5,0 10,1 15,3l0 0c5,2 10,5 14,8 3,3 7,6 9,10 0,1 0,2 -1,2 0,1 -1,1 -2,0 -2,-4 -5,-7 -8,-9 -4,-3 -9,-6 -13,-8l0 0c-5,-2 -10,-3 -14,-3 -5,0 -10,0 -14,1 -4,1 -9,4 -13,8 -3,4 -5,7 -5,11 1,2 6,27 16,79l0 0c3,16 7,27 12,33 5,7 11,10 18,11z"/>
    <path class="fil28" d="M1077 216c1,0 2,1 1,2 0,1 -1,1 -2,1 -8,-2 -14,-5 -19,-12 -5,-6 -9,-17 -12,-35l0 0c-11,-54 -16,-78 -16,-79l0 0c-1,-4 2,-9 5,-14 4,-4 10,-8 15,-9 4,-1 9,-2 14,-2 5,0 10,1 16,3l0 0c4,2 9,5 14,8 3,3 7,6 9,9 0,1 0,2 0,2 -1,1 -2,1 -3,0 -2,-3 -5,-6 -8,-8 -4,-3 -9,-6 -14,-8 -5,-2 -10,-3 -14,-3 -5,0 -9,1 -13,2 -4,1 -10,4 -13,9 -3,3 -5,7 -5,11 0,1 6,26 16,78l0 0 0 0c3,18 7,28 11,34 5,7 11,9 18,11z"/>
    <path class="fil29" d="M1367 131c1,14 6,50 5,62 -3,15 -13,28 -24,33 -20,10 -40,5 -51,-16 -6,-18 -9,-46 -11,-66 -3,-22 -6,-45 -9,-68 -3,-25 8,-40 29,-44 19,-3 34,8 47,24 2,2 5,10 6,12l0 3c5,17 6,42 8,60z"/>
    <path class="fil30" d="M1367 131c0,3 0,6 1,10 2,17 5,43 4,52l0 0c-1,7 -4,14 -8,20 -5,6 -10,10 -16,13 -10,5 -20,6 -29,3 -9,-2 -17,-9 -22,-19l0 0c-5,-14 -8,-35 -10,-53 0,-4 -1,-9 -1,-13 -1,-7 -2,-15 -3,-23 -3,-15 -5,-30 -6,-45 -2,-12 0,-22 5,-30 5,-7 13,-12 23,-14 10,-1 18,0 26,4 8,5 15,12 22,20 1,1 2,2 3,4 1,3 2,7 3,8l0 3c4,12 5,29 6,44 1,6 1,11 2,16zm1 10c-1,-4 -1,-7 -2,-10 0,-5 -1,-10 -1,-16 -1,-15 -3,-32 -6,-44l0 -3c-1,-1 -2,-5 -4,-7 -1,-2 -2,-4 -2,-4l0 0c-7,-9 -14,-16 -23,-20 -7,-4 -15,-6 -24,-4 -11,1 -19,6 -24,13 -5,8 -6,18 -5,30 2,15 4,30 6,45 1,8 2,15 3,23 1,4 1,9 2,13 2,18 4,39 9,53 6,10 13,16 22,19 9,3 18,2 29,-3 6,-3 11,-8 15,-13 4,-6 7,-13 8,-20 2,-9 -1,-35 -3,-52z"/>
    <path class="fil16" d="M1277 71c0,0 0,1 -1,1 -1,-23 10,-36 30,-40 16,-2 30,5 42,18l0 0c-27,-15 -62,-12 -71,21z"/>
    <path class="fil31" d="M1329 217c5,1 11,-1 15,-3 4,-3 9,-7 9,-12l1 -7 0 -130 7 14 12 106c0,27 -13,37 -21,41 -13,8 -31,7 -43,-2l0 -1 -1 0c-2,-3 -3,-5 -5,-8l-6 -18 16 10c3,1 6,2 9,2l7 -1 0 9z"/>
    <path class="fil9" d="M1330 216c2,0 4,0 7,0l0 0c2,-1 5,-2 7,-3 2,-1 4,-3 6,-6 1,-1 2,-3 3,-5l0 -7 0 -130 1 0 8 13 0 1 11 106 0 0c1,14 -3,23 -7,29l0 0c-4,7 -9,11 -13,13l0 0c-7,4 -15,6 -23,5 -8,0 -15,-3 -21,-8l-1 0 0 0 0 -1c-2,-1 -3,-2 -3,-3 -1,-2 -2,-3 -2,-5l-7 -17 1 -1 17 9c1,1 2,1 4,1 1,1 3,1 4,1l8 0 0 8zm7 1c-3,1 -5,1 -8,1l-1 0 0 -9 -6 0c-1,0 -3,0 -5,0 -1,0 -3,-1 -4,-2l-15 -8 6 16c1,1 1,3 2,4 1,1 2,2 3,3l0 1 1 0c6,5 13,7 20,8 8,0 15,-2 22,-5 4,-3 9,-6 13,-12 4,-7 7,-16 7,-29l-11 -106 -6 -11 0 127 -1 7c0,2 -1,4 -3,6 -2,3 -4,5 -6,6 -3,2 -5,3 -8,3l0 0z"/>
    <path class="fil32" d="M1327 219c6,1 13,0 18,-3 5,-3 10,-8 11,-14l0 -5 3 -122 11 110c1,19 -13,34 -20,38 -12,7 -28,8 -39,-1l-1 0 0 -1c-2,-2 -3,-4 -5,-7l-4 -12 11 7c3,1 7,2 10,2l5 0 0 8z"/>
    <path class="fil11" d="M1328 219c2,0 5,0 8,-1 3,0 6,-2 9,-3 2,-2 5,-4 7,-6 2,-2 3,-5 3,-7l0 -5 3 -122 2 0 11 110 0 0c0,8 -2,16 -5,22 -5,8 -11,15 -16,17l0 0c-6,4 -13,6 -21,5 -7,0 -13,-2 -19,-7l0 0 0 0 -1 0c-1,-1 -2,-2 -2,-4 -1,-1 -2,-2 -2,-4l-5 -11 2 -1 10 6c2,1 3,1 5,2 2,0 3,0 5,0l5 0 1 9zm8 1c-3,0 -6,0 -9,0l-1 0 0 -8 -4 0c-2,0 -3,0 -5,-1 -2,0 -4,-1 -5,-2l-9 -5 3 10c1,1 1,2 2,4 1,1 1,2 2,3l1 0 0 0c5,4 12,7 18,7 7,0 14,-2 21,-5 4,-3 10,-9 14,-17 3,-6 6,-13 5,-21l-9 -98c-1,38 -1,77 -4,115 0,3 -1,5 -3,8 -2,2 -5,5 -7,6l0 0c-3,2 -6,3 -10,4z"/>
    <path class="fil33" d="M1348 209c5,-3 10,0 10,-7l0 -2 5 0 -6 -127 2 7 10 107c-2,22 -18,33 -20,34 -6,4 -13,6 -20,5 -6,0 -12,-2 -17,-6l0 0 0 0c-2,-2 -3,-4 -4,-7l-2 -5 5 3c3,2 7,2 11,2l2 0 8 -5c-2,1 -5,13 16,1z"/>
    <path class="fil13" d="M1348 208c2,-1 4,-1 5,-2 2,0 4,0 4,-4l0 -3 5 0 -6 -126 2 0 2 7 0 0 10 107 0 0c-1,8 -3,14 -6,20 -6,9 -13,14 -15,15l0 0c-3,2 -6,3 -10,4 -3,1 -7,1 -10,1 -3,0 -6,-1 -9,-2 -3,-1 -6,-2 -9,-4l0 0 0 0 0 -1 0 0c-1,-1 -2,-2 -2,-3 -1,-1 -2,-2 -2,-3l-2 -6 1 -1 5 3c2,1 4,2 6,2 1,0 3,0 5,0l2 0 7 -5 1 1c0,1 -1,2 -1,3l0 0c0,1 1,1 1,2 0,0 1,1 2,1 2,0 6,-1 14,-6zm5 0c-1,0 -3,1 -4,2l0 0c-8,4 -13,5 -15,5 -2,0 -3,0 -3,-1 -1,-1 -1,-2 -1,-3 0,0 0,-1 0,-1l-5 4 -1 0 -2 0c-2,0 -4,0 -6,-1 -2,0 -4,-1 -5,-2l-4 -2 1 4c1,1 1,2 2,3 1,1 1,2 2,3l0 0 0 0 0 0c3,2 5,4 8,5 3,1 6,1 9,2 3,0 7,-1 10,-1 3,-1 6,-2 9,-4 2,-1 9,-6 14,-15 3,-5 6,-12 6,-19l-10 -107 0 -1 5 122 -4 0 0 1c-1,5 -3,5 -6,6z"/>
    <path class="fil34" d="M1361 128c1,12 5,44 3,54 -2,13 -9,24 -19,29 -11,6 -23,4 -33,-5l-7 -9c-5,-15 -7,-40 -9,-57 -2,-20 -4,-40 -7,-60 -2,-21 7,-35 23,-38 16,-3 28,6 38,21 2,1 4,8 5,10l0 2c3,15 4,37 6,53z"/>
    <path class="fil9" d="M1315 208c-1,0 -1,-1 -1,-1 0,-1 1,-1 1,-1 9,3 16,4 22,3 5,-1 9,-3 12,-5 3,-3 6,-7 7,-10 2,-5 3,-10 2,-15l-11 -105c-1,-7 -3,-13 -7,-17 -3,-5 -8,-9 -14,-11 -1,0 -1,-1 -1,-2 0,0 1,0 1,0 7,2 12,6 16,11 3,5 6,12 6,19l12 104c1,6 0,11 -2,16 -2,4 -4,8 -8,11 -3,3 -7,5 -13,6 -6,1 -13,0 -22,-3z"/>
    <path class="fil22" d="M1318 211c-1,0 -1,-1 -1,-1 0,-1 1,-1 1,-1 7,2 13,3 18,2 6,-1 11,-3 14,-6 4,-4 6,-8 8,-12 1,-5 2,-10 1,-14 -4,-35 -7,-70 -11,-105 -1,-7 -3,-13 -7,-17 -4,-5 -9,-9 -15,-11 -1,-1 -1,-1 -1,-2 0,-1 1,-1 2,-1 7,3 12,7 16,12 4,5 6,12 7,19 0,29 8,74 11,104 1,5 1,10 -1,15 -1,5 -4,10 -8,13 -4,4 -9,6 -15,7 -6,1 -12,1 -19,-2z"/>
    <path class="fil23" d="M1321 215c-1,0 -1,-1 -1,-2 0,-1 1,-1 1,-1 6,1 10,1 14,1 7,-1 12,-4 16,-8 5,-4 7,-9 9,-14 1,-4 1,-8 0,-12 -3,-35 -8,-70 -11,-105 -1,-7 -3,-13 -7,-18 -4,-4 -9,-8 -16,-10 -1,-1 -1,-2 -1,-2 1,-1 1,-1 2,-1 7,3 13,7 17,12 4,5 7,11 8,19l0 0c4,34 6,70 11,104 1,5 0,9 -1,13 -1,6 -4,12 -9,16 -4,5 -10,8 -17,9 -5,0 -10,0 -15,-1z"/>
    <path class="fil24" d="M1324 218c-1,0 -2,-1 -1,-2 0,-1 1,-1 1,-1 4,0 7,1 10,0 8,-1 14,-4 19,-9 5,-5 7,-11 8,-18 1,-3 1,-6 1,-9l-11 -104c-1,-8 -4,-14 -8,-19 -4,-4 -9,-8 -17,-11 0,0 -1,-1 -1,-2 1,-1 2,-1 2,-1 8,3 14,7 19,12 4,6 7,12 8,20 3,28 11,78 11,104 0,4 0,7 0,10 -2,8 -5,15 -10,20 -5,6 -12,10 -21,10 -3,1 -6,1 -10,0z"/>
    <path class="fil25" d="M1327 221c-1,0 -2,0 -2,-1 0,-1 1,-2 2,-2 2,0 4,0 5,0 10,-1 17,-5 23,-11 5,-6 8,-15 8,-23 0,-2 0,-4 0,-5 -2,-34 -7,-71 -11,-104 -1,-8 -4,-14 -8,-19 -4,-4 -10,-8 -17,-11 -1,0 -2,-1 -1,-2 0,-1 1,-1 2,-1 8,3 14,7 19,12 5,6 7,12 9,20 3,35 7,70 11,104 0,2 0,4 0,6 -1,9 -4,18 -10,25 -6,7 -14,12 -25,12 -1,1 -3,1 -5,0z"/>
    <path class="fil14" d="M1330 225c-1,0 -2,-1 -2,-2 0,-1 1,-2 2,-2 11,-1 20,-6 25,-13 7,-8 10,-18 9,-29l-11 -104c-1,-8 -3,-14 -8,-19 -4,-5 -10,-8 -18,-11 -1,0 -2,-1 -1,-2 0,-1 1,-2 2,-2 9,3 15,7 20,13 5,5 8,12 9,20l0 0 11 104 0 1c1,11 -3,23 -10,32 -6,8 -15,13 -28,14z"/>
    <path class="fil18" d="M1361 202c-1,7 -6,14 -13,17 -13,8 -26,6 -35,-1 -1,-1 -2,-3 -3,-5 3,2 7,3 12,2 22,5 31,-3 39,-13z"/>
    <path class="fil14" d="M1361 202c0,3 -1,7 -4,10 -2,3 -5,6 -9,8 -6,4 -12,5 -18,5 -7,0 -13,-3 -17,-6l0 0 -1 -1 0 0c-1,-1 -2,-3 -3,-5l1 -1c2,1 4,2 6,2 2,0 4,1 6,1l0 0c11,2 19,1 24,-2 6,-2 10,-7 14,-11l1 0zm-5 9c2,-2 3,-4 3,-6 -3,4 -7,8 -12,10 -6,2 -14,3 -25,1 -2,0 -5,0 -7,0 -1,-1 -2,-1 -4,-2 1,2 2,2 3,3l0 0 0 1c4,3 10,5 16,5 6,0 12,-1 17,-4 4,-2 7,-5 9,-8z"/>
    <path class="fil9" d="M1339 215c1,0 1,1 1,2 0,1 -1,1 -2,1 -8,-2 -15,-8 -20,-18 -5,-9 -8,-22 -9,-38 -8,-64 -13,-96 -13,-96 0,0 0,0 0,0 0,-5 2,-9 5,-12 5,-3 10,-6 15,-7 5,-1 10,-1 15,1 5,1 11,4 14,7l0 0c3,2 6,5 9,9 3,4 6,10 8,18 0,1 0,2 -1,2 -1,0 -2,0 -2,-1 -2,-8 -4,-13 -7,-17 -3,-4 -6,-7 -9,-9 0,0 0,0 0,0 -3,-3 -8,-5 -13,-6 -4,-2 -9,-2 -13,-1 -5,1 -10,3 -13,7 -3,2 -5,5 -5,8 0,2 5,34 13,96 0,1 0,1 0,1 1,15 4,28 9,37 4,9 11,14 18,16z"/>
    <path class="fil35" d="M1337 214c1,1 1,1 1,2 0,1 -1,2 -2,1 -8,-2 -15,-7 -20,-17 -5,-9 -8,-22 -9,-39l0 0c-8,-64 -13,-95 -13,-95 0,0 0,-1 0,-1 -1,-4 2,-8 5,-12 5,-4 10,-7 15,-8 5,-1 10,-1 15,1 5,1 10,3 14,6l0 0c4,2 7,5 11,9 3,4 6,10 8,17 1,1 0,2 -1,2 -1,0 -1,0 -2,-1 -2,-7 -5,-12 -8,-16 -3,-3 -6,-6 -9,-8l0 0c-4,-3 -9,-5 -14,-6 -4,-1 -9,-2 -13,-1 -4,1 -10,4 -13,8 -3,2 -5,6 -5,9 0,2 5,34 13,96 0,0 0,0 0,0 1,16 4,29 9,37 4,9 10,14 18,16z"/>
    <path class="fil27" d="M1335 214c1,0 1,1 1,2 0,1 -1,1 -2,1 -8,-2 -15,-7 -20,-16 -4,-9 -8,-22 -9,-41l0 0c-9,-64 -13,-94 -13,-95 0,0 -1,0 -1,0 0,-4 3,-9 6,-13 5,-4 10,-7 15,-9 5,-1 10,0 15,1 5,1 10,3 15,6l0 0c3,2 7,5 11,9 3,4 7,9 9,15 0,1 0,2 -1,2 -1,1 -2,0 -2,-1 -2,-6 -5,-10 -9,-14 -3,-4 -7,-6 -10,-9l0 0 0 0c-4,-2 -9,-4 -14,-5 -4,-1 -9,-1 -13,0 -4,1 -10,4 -13,7 -3,4 -5,7 -5,11 0,2 5,33 13,95 0,0 0,0 0,0 1,18 5,30 9,39 5,8 11,13 18,15z"/>
    <path class="fil21" d="M1333 213c0,0 1,1 1,2 -1,1 -1,1 -2,1 -8,-2 -15,-7 -20,-16 -4,-8 -8,-21 -10,-41 -8,-64 -13,-94 -13,-94 0,0 0,0 0,0 0,-5 3,-10 6,-14 5,-4 10,-8 15,-9 5,-1 10,-1 15,0 5,1 10,2 15,5l0 0c3,2 8,5 11,9 4,4 8,9 10,15 1,0 0,1 -1,2 -1,0 -1,0 -2,-1 -2,-6 -5,-10 -9,-14 -3,-3 -7,-6 -11,-8 -4,-3 -9,-4 -14,-5 -4,-1 -9,-1 -13,0 -4,1 -10,4 -13,8 -3,4 -6,8 -5,12 0,2 5,32 12,94l0 0c2,19 6,31 10,40 5,8 10,12 18,14z"/>
    <path class="fil21" d="M1331 212c0,1 1,2 1,3 -1,0 -2,1 -2,1 -8,-3 -15,-7 -20,-16 -4,-8 -8,-21 -10,-41l0 0c-8,-64 -13,-94 -13,-94 0,0 0,0 0,0 0,-5 3,-11 6,-15 5,-5 11,-9 15,-10 5,-1 10,-1 15,0 5,0 10,2 15,5l0 0 0 0c4,2 9,6 14,10 3,4 6,8 8,12 1,1 0,2 0,2 -1,1 -2,0 -2,-1 -2,-4 -5,-7 -8,-10 -5,-5 -10,-8 -14,-11 -4,-2 -9,-4 -13,-4 -5,-1 -10,-1 -14,0 -4,1 -10,5 -13,9 -4,4 -6,8 -6,13 1,1 5,30 13,93l0 0c2,20 6,33 10,41 5,7 10,11 18,13z"/>
    <path class="fil28" d="M1328 212c1,0 2,1 1,2 0,1 -1,1 -2,1 -7,-3 -14,-7 -19,-15 -4,-8 -8,-21 -10,-42l0 0c-8,-64 -13,-93 -13,-93 0,0 0,0 0,0 0,-6 2,-11 6,-16 4,-5 11,-9 15,-11 5,-1 9,-1 14,0 5,0 10,1 16,4l0 0c5,3 10,6 14,10 4,4 7,8 10,12 0,1 0,1 -1,2 -1,0 -2,0 -2,-1 -2,-3 -5,-7 -9,-10 -4,-4 -9,-8 -14,-10 -5,-3 -10,-4 -14,-4 -5,-1 -9,0 -13,1 -4,1 -9,4 -13,9 -4,4 -6,9 -6,13 1,2 5,30 13,93l0 0c2,21 6,34 10,41 5,8 10,11 17,14z"/>
    <path class="fil36" d="M1576 141c2,20 4,38 5,58 -3,26 -27,49 -55,38 -6,-2 -14,-7 -17,-13l-1 -1c-6,-11 -6,-22 -8,-34 -1,-12 -3,-24 -5,-37 -3,-24 -7,-49 -10,-73 -1,-10 -2,-8 -11,-11 -5,-2 -11,-4 -17,-6 -5,-11 4,-15 14,-17 10,-2 23,-4 33,-5 12,-1 23,-1 33,4 7,2 14,7 16,9 20,22 20,60 23,88z"/>
    <path class="fil37" d="M1570 135c2,19 -1,37 0,56 -4,26 -22,49 -50,39 -5,-2 -14,-8 -17,-13l-1 -1c-6,-11 -6,-22 -8,-34 -1,-12 -3,-24 -5,-36 -3,-24 -7,-48 -10,-73 -1,-9 -2,-7 -11,-11 -5,-1 -11,-3 -17,-5 -5,-11 4,-15 14,-17 10,-2 23,-4 33,-5 12,-1 23,0 33,4 7,2 14,6 16,9 18,22 9,61 23,87z"/>
    <path class="fil31" d="M1532 218c5,0 10,-1 15,-4 4,-2 9,-7 9,-12l0 -6 1 -130 7 13 11 106c-1,25 -14,37 -22,42 -13,8 -29,7 -41,-3l-1 0 0 -1c-2,-2 -4,-4 -5,-7l-6 -18 16 9c3,2 6,2 9,2l7 0 0 9z"/>
    <path class="fil9" d="M1533 217c2,0 4,0 6,-1 3,0 5,-1 8,-3 2,-1 4,-3 6,-5 1,-2 2,-4 2,-6l1 -6 0 -130 1 -1 8 14 0 0 11 106 0 0c0,11 -3,19 -6,26 -5,9 -12,14 -16,17l0 0c-7,4 -15,5 -22,5 -7,-1 -14,-3 -21,-8l0 -1 0 0 -1 0c-1,-1 -2,-3 -3,-4 0,-1 -1,-2 -2,-4l-6 -18 1 -1 16 10c2,0 3,1 4,1 2,0 3,0 5,0l7 0 1 9zm7 1c-3,1 -6,1 -8,1l-1 0 0 -9 -6 0c-2,0 -3,0 -5,0 -1,-1 -3,-1 -4,-2l-15 -8 6 15c0,2 1,3 2,4 1,1 1,3 2,4l1 0 0 1c6,4 13,7 20,7 7,1 14,-1 21,-5 4,-2 11,-8 15,-16 4,-6 6,-14 7,-25l-12 -105 -6 -11 0 127 0 7c0,2 -1,4 -3,6 -2,3 -4,5 -7,6l0 0c-2,1 -5,2 -7,3z"/>
    <path class="fil32" d="M1530 220c6,1 13,-1 18,-4 5,-3 10,-8 10,-13l1 -5 3 -122 11 110c0,18 -13,34 -20,38 -13,7 -28,7 -40,-2l0 0 0 0c-2,-3 -4,-4 -5,-7l-4 -12 11 6c3,2 6,3 10,2l4 0 1 9z"/>
    <path class="fil11" d="M1530 219c3,0 6,0 9,0 3,-1 6,-2 9,-4 2,-1 5,-3 7,-6 1,-2 2,-4 3,-6l0 -5 3 -122 2 -1 11 111 0 0c0,8 -2,15 -6,21 -4,9 -11,15 -15,18 -6,3 -14,5 -21,5 -7,0 -14,-2 -19,-7l-1 0 0 0 0 -1c-1,-1 -2,-2 -3,-3 0,-1 -1,-2 -2,-4l-4 -12 1 -1 11 7c2,0 3,1 5,1 1,1 3,1 5,1l5 0 0 8zm9 1c-3,1 -6,1 -9,1l-1 0 0 -9 -4 0c-2,0 -4,0 -5,0 -2,0 -4,-1 -6,-2l-9 -5 4 10c0,1 1,2 2,3 0,1 1,2 2,3l0 1 1 0c5,4 12,6 18,6 7,1 14,-1 20,-5 4,-2 11,-8 15,-16 3,-6 5,-13 5,-21l-10 -98c-1,38 -1,77 -3,115 0,2 -1,5 -3,7 -2,3 -5,5 -7,7l0 0c-3,2 -7,3 -10,3z"/>
    <path class="fil33" d="M1551 210c5,-3 9,-1 10,-7l0 -3 4 1 -5 -127 2 6 10 107c-2,22 -18,34 -20,35 -6,4 -13,5 -20,5 -6,0 -12,-3 -17,-6l0 0 -1 -1c-1,-2 -3,-3 -4,-6l-2 -6 6 3c3,2 7,3 11,3l2 0 8 -6c-2,2 -6,14 16,2z"/>
    <path class="fil13" d="M1550 209c2,-1 4,-2 6,-2 2,0 4,-1 4,-4l0 -3 4 0 -5 -126 1 0 3 6 0 0 10 107 0 0c-1,8 -3,15 -7,20 -5,10 -13,15 -14,16 -3,2 -7,3 -10,4 -3,1 -7,1 -10,1 -4,0 -7,-1 -10,-2 -3,-1 -5,-3 -8,-5l0 0 0 0 0 0c-1,-1 -2,-2 -3,-3 0,-1 -1,-2 -1,-4l-2 -6 1 -1 5 4c2,1 3,1 5,1 2,1 4,1 6,1l2 0 7 -5 1 1c0,0 -1,2 -1,3 0,1 0,1 1,2 0,0 1,0 2,0 2,0 6,-1 13,-5l0 0zm6 0c-1,0 -3,0 -5,1 -7,5 -12,6 -15,6 -1,0 -2,-1 -3,-1 0,-1 0,-2 0,-3 0,0 0,-1 0,-1l-5 3 -1 0 -2 1c-2,0 -4,-1 -6,-1 -2,0 -4,-1 -6,-2l-3 -2 1 4c1,1 1,2 2,3 0,1 1,2 2,3l0 0 0 0c3,2 5,3 8,4 3,1 6,2 9,2 3,0 6,0 10,-1 3,-1 6,-2 9,-4 1,0 9,-5 14,-15 3,-5 5,-11 6,-19l-10 -106 0 -2 5 123 -4 -1 -1 2c0,5 -2,5 -5,6z"/>
    <path class="fil9" d="M1517 209c0,-1 0,-1 0,-2 0,0 1,-1 1,0 9,3 16,4 22,3 5,-1 9,-3 12,-6 3,-2 5,-6 7,-10 2,-5 2,-10 1,-15l-11 -104c-1,-7 -3,-13 -6,-18 -4,-5 -8,-8 -15,-11 0,0 0,0 0,-1 0,0 1,-1 1,0 7,2 12,6 15,11 4,5 6,11 7,19l11 104c1,5 1,11 -1,16 -2,4 -4,8 -8,11 -3,3 -8,5 -13,6 -6,1 -14,0 -23,-3z"/>
    <path class="fil22" d="M1520 212c0,0 0,-1 0,-2 0,0 1,-1 1,0 7,2 13,2 18,2 6,-1 10,-4 14,-7 4,-3 6,-7 8,-12 1,-4 1,-9 1,-14 -4,-34 -8,-69 -11,-104 -1,-7 -4,-13 -7,-18 -4,-5 -9,-8 -15,-11 -1,0 -1,-1 -1,-1 0,-1 1,-1 1,-1 7,3 13,7 17,12 4,5 6,11 7,19 0,28 8,74 11,104 1,5 0,10 -1,15 -2,5 -5,9 -8,13 -4,4 -9,6 -16,7 -5,1 -11,0 -19,-2z"/>
    <path class="fil23" d="M1524 215c-1,0 -2,-1 -1,-1 0,-1 0,-2 1,-1 5,1 10,1 14,1 7,-1 12,-4 16,-8 4,-4 7,-9 8,-15 1,-4 2,-8 1,-12 -3,-34 -8,-69 -11,-104 -1,-7 -3,-13 -7,-18 -4,-5 -9,-8 -16,-11 -1,0 -1,-1 -1,-2 0,0 1,-1 2,-1 7,3 13,7 17,12 4,6 7,12 8,20l0 0c3,34 6,70 11,104 0,4 0,9 -1,13 -1,6 -4,12 -9,16 -4,4 -10,8 -18,8 -4,1 -9,1 -14,-1z"/>
    <path class="fil24" d="M1527 219c-1,0 -2,-1 -2,-2 0,-1 1,-2 2,-1 4,0 7,0 10,0 8,-1 14,-4 19,-9 4,-5 7,-12 8,-18 1,-4 1,-7 0,-10l-11 -104c-1,-7 -3,-13 -7,-18 -4,-5 -10,-8 -17,-11 -1,0 -1,-1 -1,-2 0,-1 1,-1 2,-1 8,3 14,7 18,12 5,5 7,12 9,20 3,28 11,78 11,104 0,3 0,7 -1,10 -1,7 -4,15 -9,20 -5,5 -12,9 -21,10 -3,0 -7,0 -10,0z"/>
    <path class="fil25" d="M1530 222c-1,0 -2,-1 -2,-2 0,-1 1,-2 2,-2 2,1 3,1 5,0 10,0 17,-5 22,-11 6,-6 8,-14 9,-23 0,-1 0,-3 0,-5 -2,-33 -8,-70 -11,-104 -1,-7 -4,-13 -8,-18 -4,-5 -10,-9 -18,-11 -1,0 -1,-1 -1,-2 1,-1 2,-2 3,-2 8,3 14,7 19,13 4,5 7,12 8,20 4,35 7,69 11,104 0,2 0,4 0,6 0,9 -3,18 -9,25 -6,7 -14,11 -25,12 -2,0 -3,0 -5,0z"/>
    <path class="fil14" d="M1533 225c-1,1 -2,0 -2,-1 0,-2 1,-2 2,-3 11,0 19,-5 25,-12 7,-8 10,-19 9,-30l-11 -104c-1,-7 -4,-13 -8,-18 -4,-5 -11,-9 -18,-11 -1,-1 -2,-2 -2,-3 1,-1 2,-1 3,-1 8,3 15,7 20,12 5,6 8,13 9,21l0 0 11 104 0 0c1,12 -3,24 -10,32 -6,8 -16,14 -28,14z"/>
    <path class="fil18" d="M1563 203c0,6 -6,13 -13,17 -12,7 -25,5 -34,-1 -1,-2 -3,-3 -3,-6 3,2 14,6 19,6l31 -16z"/>
    <path class="fil14" d="M1564 203c0,3 -2,7 -4,10 -2,3 -6,6 -9,8 -6,3 -13,5 -18,4 -7,0 -13,-2 -17,-5l-1 -1 0 0c-1,-2 -2,-3 -3,-5l1 -1c2,1 6,2 10,3 3,1 6,2 9,2l32 -16 0 1zm-5 9c1,-3 3,-5 3,-8l-30 16 0 0c-2,0 -6,-1 -9,-2 -3,-1 -7,-2 -9,-3 1,1 2,2 2,3l1 0c4,4 10,6 16,6 5,0 11,-1 17,-5 3,-2 6,-4 9,-7z"/>
    <path class="fil38" d="M1562 127c1,12 5,44 4,54 -2,13 -10,24 -19,29 -11,6 -24,4 -33,-5l-7 -9c-6,-15 -7,-40 -9,-57 -2,-20 -5,-40 -7,-60 -2,-21 6,-35 23,-38 15,-3 28,6 37,21 2,1 4,8 5,10l0 3c4,14 4,36 6,52z"/>
    <path class="fil9" d="M1516 207c0,0 -1,-1 0,-1 0,-1 0,-1 1,-1 8,3 16,4 22,3 4,-1 8,-3 12,-5 3,-3 5,-6 7,-10 1,-5 2,-10 1,-15l-11 -104c-1,-8 -3,-14 -6,-18 -4,-5 -9,-9 -15,-11 0,0 -1,-1 0,-1 0,-1 0,-1 1,-1 6,3 11,6 15,11 4,6 6,12 7,19l11 104c1,6 0,11 -2,16 -1,5 -4,8 -7,11 -4,3 -8,5 -13,6 -6,1 -14,0 -23,-3z"/>
    <path class="fil22" d="M1520 209c-1,0 -1,-1 -1,-1 0,-1 1,-1 1,-1 7,2 14,3 19,2 5,-1 10,-3 13,-6 4,-3 6,-7 7,-12 2,-4 2,-9 1,-13 -3,-35 -7,-70 -11,-104 -1,-8 -3,-14 -6,-18 -4,-5 -9,-9 -16,-11 0,-1 -1,-1 0,-2 0,0 1,-1 1,-1 7,3 13,7 16,12 4,5 7,12 8,19 0,28 8,74 11,104 1,5 0,10 -1,15 -2,5 -5,9 -8,13 -4,3 -9,5 -15,6 -5,1 -12,1 -19,-2z"/>
    <path class="fil23" d="M1523 211c-1,0 -1,-1 -1,-1 0,-1 1,-2 2,-1 5,1 10,1 15,1 6,-1 11,-3 15,-7 3,-4 6,-8 7,-13 1,-4 1,-8 1,-12 -3,-35 -8,-70 -11,-104 -1,-8 -4,-14 -7,-18 -4,-5 -10,-9 -16,-11 -1,-1 -1,-1 -1,-2 0,-1 1,-1 2,-1 7,3 13,7 17,12 4,5 6,11 7,19l0 0 12 104c0,5 0,9 -1,13 -1,6 -4,11 -8,15 -5,4 -10,7 -17,8 -5,0 -10,0 -16,-2z"/>
    <path class="fil24" d="M1527 214c-1,-1 -2,-1 -2,-2 1,-1 1,-2 2,-2 4,1 8,1 11,1 7,-1 13,-4 17,-8 4,-4 7,-10 8,-16 0,-3 0,-6 0,-9l-11 -104c-1,-8 -3,-14 -7,-18 -4,-5 -10,-9 -17,-12 -1,0 -1,-1 -1,-2 0,0 1,-1 2,-1 8,3 14,7 18,13 4,5 7,11 8,19 4,29 11,78 11,104 1,4 1,7 0,11 -1,7 -4,13 -8,17 -5,5 -11,8 -20,9 -3,0 -7,0 -11,0z"/>
    <path class="fil25" d="M1530 216c-1,0 -1,-1 -1,-2 0,-1 1,-2 2,-2 2,0 4,0 6,0 9,-1 15,-4 20,-9 5,-5 7,-12 8,-20 0,-1 0,-3 -1,-5l-11 -104c-1,-8 -3,-14 -7,-18 -5,-5 -10,-9 -18,-12 -1,0 -1,-1 -1,-2 0,-1 1,-1 2,-1 8,3 15,7 19,12 5,6 8,12 9,20 4,35 7,70 11,105 0,2 0,4 0,6 0,8 -3,16 -8,22 -5,5 -13,9 -23,10 -2,0 -4,0 -7,0z"/>
    <path class="fil14" d="M1534 218c-1,0 -2,-1 -2,-2 0,-1 1,-2 2,-2 11,-1 19,-4 24,-10 6,-7 8,-15 8,-26l-11 -104c-1,-7 -4,-14 -8,-19 -5,-4 -11,-8 -19,-11 -1,0 -1,-1 -1,-2 0,-1 2,-2 3,-2 8,3 15,7 20,13 5,5 8,12 9,20l0 0 11 105 0 0c0,11 -2,21 -9,28 -6,7 -15,11 -27,12z"/>
    <path class="fil18" d="M1491 38c-21,0 -32,3 -31,9 -1,4 8,8 28,13l3 -22z"/>
    <path class="fil28" d="M1531 219c-6,-1 -12,-3 -15,-7 -4,-3 -7,-8 -9,-14l0 0 -20 -130c0,-1 -3,-3 -7,-5 -4,-2 -11,-5 -19,-8l0 0c-2,-1 -4,-3 -5,-4 -1,-2 -1,-3 -1,-5 0,-2 2,-4 4,-5 3,-2 6,-2 10,-3 12,-2 23,-4 32,-4 10,-1 17,-1 23,0l0 0c8,2 15,5 21,9 6,4 11,9 14,17l-2 1c-4,-7 -8,-12 -14,-16 -5,-4 -12,-6 -19,-7l0 0c-6,-1 -13,-2 -22,-1 -9,0 -20,2 -32,4l-1 0c-3,1 -6,2 -8,2 -2,1 -3,2 -3,3l0 1c0,1 0,1 1,2 0,1 1,2 3,3 9,3 15,6 20,8 5,2 8,5 8,7l1 0 20 131c1,5 3,9 7,12 3,3 8,5 13,6l0 3z"/>
    <path class="fil39" d="M1531 216c1,0 2,1 2,2 -1,1 -1,1 -2,1 -7,-1 -11,-4 -15,-7 -3,-4 -5,-8 -7,-14l0 0c-13,-85 -19,-128 -20,-130 0,-2 -3,-3 -7,-5 -4,-2 -11,-5 -19,-8l0 0c-3,-1 -4,-2 -5,-4 -2,-1 -2,-3 -2,-4 1,-3 2,-4 5,-6 2,-1 5,-1 9,-2 13,-2 24,-3 33,-4 9,0 16,0 22,1l0 0c8,1 15,4 21,8 6,4 10,10 14,18 0,0 0,1 -1,1 -1,1 -2,1 -2,0 -3,-7 -8,-13 -13,-16 -5,-4 -12,-7 -19,-8l0 0c-6,-1 -13,-2 -22,-1 -9,1 -20,2 -32,4l0 0c-4,1 -7,1 -9,2 -2,1 -3,2 -3,3l0 0c0,1 0,2 1,3 1,1 2,2 4,2 8,3 15,6 20,8 4,3 7,5 8,7l0 0c0,0 7,44 20,130 1,6 3,10 6,13 3,3 8,5 13,6z"/>
    <path class="fil40" d="M1532 216c0,1 1,1 0,2 0,1 0,1 -1,1 -7,-2 -11,-4 -14,-8 -3,-3 -5,-7 -6,-13l0 0c-13,-85 -19,-128 -20,-130 -1,-4 -9,-6 -24,-12l-2 -1c-3,-1 -5,-2 -6,-3 -1,-1 -2,-3 -1,-5 0,-2 1,-4 4,-5 2,-1 5,-1 9,-2l1 0c13,-1 23,-3 32,-3 9,-1 16,-1 22,0l0 0c8,2 15,4 20,9 6,4 10,10 14,17 0,1 0,2 -1,2 0,0 -1,0 -1,-1 -4,-7 -8,-12 -13,-16 -5,-4 -12,-7 -19,-8 -6,-1 -13,-1 -22,-1 -9,1 -19,2 -32,4 -4,0 -7,1 -9,2 -2,0 -2,1 -3,2l0 1c0,1 0,1 1,2 1,1 2,2 5,3l2 1c16,5 24,9 26,13l0 0c0,0 6,44 20,130 1,6 2,10 5,13 2,2 6,5 13,6z"/>
    <path class="fil41" d="M1532 217c0,0 0,0 0,1 0,1 -1,1 -1,1 -7,-3 -11,-5 -13,-8 -3,-4 -4,-8 -5,-14l0 0c-14,-84 -20,-127 -20,-129 -1,-4 -7,-6 -19,-10 -2,-1 -5,-2 -7,-2 -3,-1 -5,-2 -6,-4 -2,-1 -2,-3 -2,-4 1,-5 5,-5 12,-6l2 0c2,-1 5,-1 8,-1 22,-3 35,-4 46,-3l0 0c8,2 14,5 20,9 5,5 10,11 13,18 0,0 0,1 0,1 -1,1 -2,0 -2,0 -3,-7 -7,-13 -13,-17 -5,-4 -11,-7 -19,-8l0 0c-10,-2 -23,0 -45,2 -3,0 -5,0 -8,1l-1 0c-7,1 -10,1 -10,4l-1 0c0,1 0,2 1,3 1,1 3,2 5,2l0 0c3,2 6,2 8,3 13,4 19,7 20,11l0 0c0,1 6,44 20,130 1,6 2,9 4,12 3,3 6,5 13,8z"/>
    <path class="fil42" d="M1532 217c0,0 0,0 0,1 0,0 -1,1 -1,0 -13,-5 -14,-9 -16,-19l0 -2c-14,-84 -20,-128 -20,-129 -1,-4 -6,-5 -16,-9 -3,-1 -7,-2 -11,-3 0,0 0,0 -1,-1 -2,0 -4,-1 -5,-2 -1,-2 -2,-3 -1,-5l0 0c0,-4 3,-4 10,-5 1,0 2,0 3,0l0 0c7,-1 14,-2 19,-2 16,-1 26,-2 35,-1l0 0c8,1 14,4 19,9 6,4 10,10 13,17 1,1 0,1 0,2 -1,0 -1,0 -1,-1 -4,-7 -8,-12 -13,-17 -5,-4 -11,-7 -19,-8 -8,-1 -18,-1 -33,1 -6,0 -13,1 -20,2 -1,0 -2,0 -3,0 -5,1 -8,1 -8,4l0 0 0 0c-1,1 0,2 0,2 1,1 3,2 5,3 0,0 0,0 1,0l0 0c4,1 7,2 11,3 10,4 16,6 17,11l0 0c0,0 6,43 20,129l0 2c2,9 2,13 15,18z"/>
    <path class="fil43" d="M1532 217c0,0 0,1 0,1 0,0 -1,0 -1,0 -12,-5 -13,-8 -14,-16 0,-2 0,-3 0,-5 -15,-86 -20,-129 -20,-129 -1,-4 -6,-5 -15,-8 -3,-1 -7,-2 -12,-4 -1,0 -1,0 -2,-1 -2,0 -4,-1 -5,-2 -1,-1 -1,-2 -1,-4 0,0 0,0 0,0 1,-4 3,-4 9,-5 1,0 3,0 4,0l0 0c11,-1 19,-1 26,-2 12,-1 20,-2 27,-1l0 0c8,2 15,5 20,9 5,5 9,11 13,18 0,0 0,1 -1,1 0,0 -1,0 -1,0 -3,-7 -7,-13 -12,-17 -5,-5 -11,-8 -19,-9 -7,-1 -15,0 -27,1 -7,0 -15,1 -26,1 -1,1 -3,1 -4,1 -5,0 -7,1 -7,3l0 0c0,0 0,0 0,0 -1,1 0,2 0,3 1,1 3,1 5,2 0,0 1,0 2,0l0 0c4,2 8,3 12,4 9,3 15,5 16,10l0 0c0,0 5,43 19,129 0,1 1,3 1,4 1,8 1,11 13,16z"/>
    <path class="fil9" d="M1194 44c12,4 21,13 27,23 3,6 5,13 6,20 1,7 0,14 -2,21 -3,9 -10,18 -20,23l0 -1c9,-5 15,-14 18,-23 3,-6 3,-13 3,-20 -1,-6 -3,-13 -6,-19 -6,-10 -15,-18 -27,-22l1 -2z"/>
    <path class="fil44" d="M1195 45c13,4 23,13 28,24 3,6 5,13 5,19 1,7 0,13 -2,19 -3,10 -10,19 -21,24l-1 -1c11,-5 17,-14 21,-23 2,-6 2,-12 2,-19 -1,-6 -2,-12 -5,-18 -5,-11 -15,-20 -27,-24l0 -1z"/>
    <path class="fil45" d="M1196 45c14,4 24,15 29,27 3,5 4,11 5,17 0,6 -1,12 -2,18 -4,11 -12,20 -23,25l-1 -2c11,-5 19,-13 22,-23 2,-6 3,-12 2,-18 0,-5 -2,-11 -4,-17 -5,-11 -15,-21 -28,-26l0 -1z"/>
    <path class="fil46" d="M1198 45c14,5 24,16 30,29 2,5 3,11 3,16 0,6 0,12 -2,17 -4,11 -12,20 -25,25l0 -1c12,-5 20,-14 23,-25 2,-5 3,-10 2,-16 0,-5 -1,-10 -3,-16 -5,-12 -15,-23 -29,-27l1 -2z"/>
    <path class="fil47" d="M1199 45c11,4 19,11 25,20 5,8 8,17 8,25 1,9 -1,18 -6,26 -5,7 -12,13 -22,17l-1 -2c10,-3 17,-9 21,-16 5,-7 7,-16 7,-24 -1,-9 -3,-18 -8,-25 -6,-9 -14,-16 -24,-19l0 -2z"/>
    <path class="fil48" d="M1200 46c12,3 20,11 26,20 5,8 7,17 8,25 0,9 -2,18 -7,25 -5,7 -13,14 -24,17l0 -1c10,-4 18,-10 23,-17 4,-7 6,-15 6,-24 0,-8 -3,-17 -7,-24 -6,-9 -14,-16 -25,-20l0 -1z"/>
    <path class="fil49" d="M1202 46c11,4 20,12 26,21 4,8 7,17 7,25 0,9 -2,17 -7,24 -5,8 -13,14 -25,17l-1 -1c12,-3 20,-9 25,-17 4,-7 6,-15 6,-23 0,-8 -2,-17 -7,-24 -5,-9 -14,-17 -25,-21l1 -1z"/>
    <path class="fil36" d="M1453 113c1,14 3,27 3,41 -2,19 -19,35 -38,27 -4,-1 -10,-5 -12,-9l-1 -1c-4,-7 -5,-15 -6,-24 -1,-8 -2,-17 -3,-26 -3,-17 -5,-35 -8,-52 0,-7 -1,-6 -7,-8 -4,-1 -8,-3 -12,-4 -4,-8 2,-10 9,-12 7,-1 17,-3 24,-3 8,-1 16,-1 24,2 4,2 9,5 10,7 15,15 15,42 17,62z"/>
    <path class="fil50" d="M1449 109c1,13 3,26 3,40 -2,18 -19,34 -39,27 -4,-1 -10,-5 -12,-9l-1 -1c-4,-7 -4,-15 -5,-24 -1,-8 -2,-17 -4,-26 -2,-17 -4,-34 -7,-51 -1,-7 -1,-6 -8,-8 -3,-1 -8,-3 -11,-4 -4,-8 1,-11 8,-12 8,-2 17,-3 25,-4 8,-1 16,-1 24,2 4,2 9,6 10,8 15,15 14,42 17,62z"/>
    <path class="fil31" d="M1422 168c3,0 7,-1 10,-3 3,-2 7,-5 7,-8l0 -5 0 -92 6 9 8 76c-1,17 -11,26 -16,29 -9,6 -21,5 -30,-2l0 0 0 0c-2,-2 -3,-4 -4,-6l-4 -12 11 6c2,1 5,2 7,2l4 -1 1 7z"/>
    <path class="fil9" d="M1422 167c2,0 3,0 5,-1 2,0 3,-1 5,-2 1,0 3,-2 4,-3 1,-2 2,-3 2,-4l0 -5 0 -92 2 -1 5 10 0 0 8 76 0 0c0,7 -2,13 -4,18 -4,6 -8,10 -12,12 -5,3 -10,4 -15,4 -5,-1 -11,-3 -15,-6l0 0 0 0 -1 -1 0 0c-1,-1 -1,-2 -2,-3 0,0 -1,-1 -1,-3l-5 -12 1 -1 12 7c1,0 2,0 3,1 1,0 2,0 3,0l5 0 0 6zm5 1c-2,0 -3,1 -5,0l-1 0 0 -6 -4 0c-1,0 -3,0 -4,0 -1,0 -2,-1 -3,-1l-10 -6 4 11c0,1 1,2 1,3 1,0 2,1 2,2l1 0 0 1c4,3 9,5 14,5 5,0 10,-1 14,-3 4,-2 8,-6 11,-12 3,-5 4,-10 5,-17l-8 -75 -4 -7 0 89 0 5c-1,2 -1,3 -2,5 -2,1 -4,3 -5,4 -2,1 -4,1 -6,2z"/>
    <path class="fil32" d="M1420 169c5,1 9,0 13,-3 3,-1 7,-5 7,-9l1 -3 2 -87 8 78c0,13 -9,24 -15,27 -8,5 -19,5 -28,-1l0 0 0 -1c-1,-1 -2,-2 -3,-4l-3 -9 8 5c2,1 4,1 7,1l3 0 0 6z"/>
    <path class="fil11" d="M1421 168c2,1 4,0 6,0 2,0 4,-1 6,-2 1,-1 3,-3 5,-5 1,-1 2,-3 2,-4l0 -3 2 -87 2 0 8 78 0 0c0,6 -2,11 -4,15 -4,6 -8,11 -11,13 -5,2 -10,4 -15,4 -5,-1 -10,-2 -14,-5l0 0 0 -1 0 0 -1 0c0,-1 -1,-2 -1,-2 -1,-1 -1,-2 -2,-3l-3 -9 1 -1 8 5c1,0 2,1 3,1 1,0 2,0 4,0l4 0 0 6zm6 2c-2,0 -5,0 -7,0l-1 0 0 -6 -2 0c-2,0 -3,0 -4,0 -1,-1 -3,-1 -4,-2l-6 -3 3 6c0,1 0,2 1,3 0,0 1,1 2,2l0 0 0 0c4,3 8,5 13,5 5,0 10,-1 14,-4 3,-1 7,-6 10,-11 3,-5 4,-10 4,-15l-7 -66c0,26 0,52 -2,78 0,2 -1,4 -2,5 -2,2 -4,4 -5,5l0 0c-3,1 -5,2 -7,3z"/>
    <path class="fil33" d="M1435 162c4,-2 7,0 7,-5l0 -2 3 1 -4 -90 2 4 7 76c-1,16 -13,24 -14,25 -5,2 -10,3 -14,3 -5,0 -9,-2 -13,-4l0 0 0 -1c-1,-1 -2,-2 -3,-4l-1 -4 4 2c2,1 5,2 8,2l1 0 6 -4c-1,1 -4,10 11,1z"/>
    <path class="fil13" d="M1435 161c1,-1 2,-1 4,-1 1,-1 2,-1 2,-3l0 -3 4 1 -5 -89 2 -1 2 5 0 0 7 76 0 0c-1,6 -2,10 -5,14 -4,7 -9,11 -10,11 -2,2 -5,3 -7,3 -3,1 -5,1 -8,1l0 0c-2,0 -4,-1 -6,-2 -2,0 -4,-1 -6,-3l0 0 0 0 0 0 0 0c-1,-1 -2,-1 -2,-2 -1,-1 -1,-2 -1,-3l-2 -4 1 -1 4 2c1,1 2,1 4,2 1,0 2,0 4,0l1 0 5 -4 1 1c0,1 0,2 0,2 0,1 0,1 0,1 0,1 0,1 1,1 2,0 5,-1 10,-4zm4 0c-1,1 -2,1 -3,2 -6,3 -9,4 -11,4 -1,-1 -2,-1 -2,-2 -1,0 -1,-1 -1,-1 0,-1 0,-1 0,-1l-3 2 -1 1 -1 0c-2,0 -3,-1 -5,-1 -1,0 -2,-1 -4,-1l-2 -1 1 2c0,1 1,1 1,2 1,1 1,1 2,2l0 0 0 0 0 0c2,1 3,2 5,3 2,1 4,1 7,1 2,0 4,0 7,0 2,-1 4,-2 6,-3 1,-1 6,-4 10,-11 2,-3 4,-8 4,-13l-7 -71 4 81 -3 0 0 1c0,4 -2,4 -4,4z"/>
    <path class="fil9" d="M1411 161c0,0 0,0 0,-1 0,0 1,-1 1,-1 6,3 11,3 15,3 4,-1 6,-2 9,-4 2,-2 3,-5 4,-7 2,-4 2,-7 2,-11l-8 -74c-1,-5 -2,-9 -5,-12 -2,-3 -6,-6 -10,-8 0,0 -1,0 -1,-1 1,0 1,-1 2,0 4,1 8,4 11,8 2,3 4,8 5,13l8 74c0,4 0,8 -2,12 -1,3 -3,5 -5,7 -3,2 -6,4 -9,5 -5,0 -10,0 -17,-3z"/>
    <path class="fil22" d="M1413 164c0,0 -1,-1 0,-2 0,0 1,-1 1,0 5,1 9,1 13,1 4,-1 7,-2 9,-5 3,-2 5,-5 6,-8 1,-3 1,-6 0,-10 -2,-24 -5,-49 -7,-73 -1,-6 -3,-10 -5,-13 -3,-3 -6,-6 -11,-8 0,0 -1,-1 0,-1 0,-1 0,-1 1,-1 5,2 9,5 12,9 3,3 4,8 5,13 0,20 6,53 8,74 0,4 0,7 -1,11 -1,3 -3,7 -6,9 -3,3 -7,5 -11,5 -4,1 -8,0 -14,-1z"/>
    <path class="fil23" d="M1416 166c-1,0 -2,-1 -1,-1 0,-1 1,-2 1,-1 4,0 7,1 10,0 5,0 8,-2 11,-5 3,-3 5,-6 6,-10 1,-3 1,-6 0,-9 -2,-24 -5,-49 -8,-73 0,-5 -2,-10 -4,-13 -3,-3 -7,-6 -12,-8 0,0 -1,-1 0,-1 0,-1 1,-2 1,-1 6,2 10,4 13,8 3,4 5,9 5,14l0 0c3,25 5,50 8,74 0,3 0,6 0,9 -1,5 -4,9 -7,12 -3,3 -7,5 -13,6 -3,0 -6,0 -10,-1z"/>
    <path class="fil24" d="M1418 169c-1,0 -2,-1 -1,-2 0,-1 0,-2 1,-1 3,0 5,0 7,0 6,-1 10,-3 13,-6 3,-4 5,-8 6,-13 0,-2 0,-4 0,-7l-8 -73c0,-5 -2,-10 -5,-13 -3,-3 -6,-6 -11,-8 -1,0 -2,-1 -1,-2 0,-1 1,-1 2,-1 5,2 9,5 13,9 3,4 5,9 6,14 2,21 7,55 7,74 1,3 1,5 0,7 -1,6 -3,11 -7,15 -3,4 -8,6 -15,7 -2,0 -4,0 -7,0z"/>
    <path class="fil25" d="M1420 171c-1,0 -2,-1 -1,-2 0,-1 0,-1 1,-1 2,0 3,0 4,0 6,-1 12,-4 15,-8 4,-4 6,-10 6,-16 0,-1 0,-2 0,-4 -1,-23 -5,-49 -8,-73 0,-5 -2,-10 -5,-13 -3,-3 -7,-6 -12,-8 -1,0 -2,-1 -1,-2 0,-1 1,-1 2,-1 6,2 10,5 14,9 3,4 5,8 6,14 3,25 5,50 8,74 0,1 0,3 0,4 -1,7 -3,13 -7,18 -4,5 -10,9 -18,9 -1,0 -2,0 -4,0z"/>
    <path class="fil14" d="M1423 174c-2,0 -2,-1 -3,-2 0,-1 1,-2 2,-2 8,-1 14,-4 18,-9 4,-6 6,-13 6,-21l-8 -73c0,-5 -2,-10 -5,-13 -3,-3 -8,-6 -13,-8 -1,0 -2,-1 -1,-2 0,-1 1,-2 2,-2 6,2 11,5 15,9 3,4 5,9 6,15l0 0 8 74 0 0c0,9 -2,17 -7,23 -5,6 -12,10 -20,11z"/>
    <path class="fil18" d="M1444 157c-1,5 -4,9 -9,12 -9,5 -19,4 -25,-1 -1,-1 -1,-2 -2,-4 2,2 10,4 14,4l22 -11z"/>
    <path class="fil14" d="M1444 157c0,3 -1,5 -2,7 -2,2 -4,4 -7,6 -4,2 -9,3 -13,3 -4,0 -9,-1 -12,-4l0 0 0 0c-1,-2 -2,-2 -3,-4l1 -1c2,0 5,2 7,2 3,1 5,2 6,2l24 -12 -1 1zm-4 6c2,-1 2,-3 3,-5l-21 11 0 0c-2,0 -5,0 -7,-1 -2,-1 -4,-1 -5,-2 0,1 0,1 1,2l0 0c3,2 7,4 11,4 4,0 8,-1 12,-3 3,-2 5,-4 6,-6z"/>
    <path class="fil51" d="M1443 103c1,9 4,32 3,39 -2,9 -7,17 -14,20 -8,5 -16,3 -23,-3l-5 -7c-4,-10 -5,-28 -6,-40 -2,-14 -4,-28 -5,-42 -2,-16 4,-26 16,-28 11,-2 19,5 26,15 2,1 3,6 4,7l0 2c2,10 3,26 4,37z"/>
    <path class="fil9" d="M1410 160c0,0 0,-1 0,-1 0,-1 1,-1 1,-1 6,3 11,3 15,3 4,-1 6,-2 9,-4 2,-2 4,-5 5,-7 1,-4 1,-7 1,-11l-8 -74c-1,-5 -2,-9 -5,-12 -2,-3 -6,-6 -10,-8 0,0 -1,0 0,-1 0,0 0,-1 1,-1 5,2 8,5 11,9 2,3 4,8 5,13l8 74c0,4 0,8 -2,11 -1,3 -3,6 -5,8 -2,2 -6,4 -9,5 -5,0 -10,0 -17,-3z"/>
    <path class="fil22" d="M1413 162c-1,0 -1,-1 -1,-2 0,0 1,-1 2,0 5,1 9,2 12,1 4,-1 7,-2 10,-4 2,-2 4,-5 5,-8 1,-3 1,-7 1,-10 -3,-24 -6,-49 -8,-74 -1,-5 -3,-9 -5,-12 -3,-3 -6,-6 -11,-8 0,0 -1,-1 0,-1 0,-1 1,-1 1,-1 5,2 9,5 12,8 3,4 4,9 5,14 0,20 6,53 8,74 0,3 0,7 -1,11 -1,3 -3,6 -6,9 -2,2 -6,4 -10,4 -4,1 -9,1 -14,-1z"/>
    <path class="fil23" d="M1415 163c0,0 -1,0 -1,-1 1,-1 1,-1 2,-1 4,1 7,1 10,1 5,-1 8,-3 11,-5 2,-3 4,-6 5,-9 1,-3 1,-6 0,-9 -2,-24 -5,-49 -7,-74 -1,-5 -3,-9 -5,-12 -3,-3 -7,-6 -12,-8 0,0 -1,-1 0,-2 0,0 1,-1 1,0 6,2 10,4 13,8 3,4 5,9 5,14l0 0c3,24 5,50 8,74 1,3 0,6 0,9 -1,4 -3,8 -6,11 -3,3 -7,5 -12,5 -4,1 -7,0 -12,-1z"/>
    <path class="fil24" d="M1418 165c-1,0 -2,-1 -1,-2 0,-1 1,-1 1,-1 3,0 6,0 8,0 5,0 9,-2 12,-5 3,-3 5,-7 5,-11 0,-2 1,-4 0,-7l-7 -73c-1,-6 -3,-10 -6,-13 -3,-3 -6,-6 -11,-8 -1,0 -2,-1 -1,-2 0,-1 1,-1 2,-1 5,2 10,5 13,9 3,4 5,8 6,14 2,20 8,55 8,74 0,3 0,5 -1,7 0,5 -2,10 -6,13 -3,4 -8,6 -14,6 -2,1 -5,1 -8,0z"/>
    <path class="fil25" d="M1421 167c-1,0 -2,-1 -2,-2 0,-1 1,-2 2,-2 1,0 3,0 4,0 6,0 11,-3 14,-6 3,-4 5,-8 5,-14 0,-1 0,-2 0,-4 -1,-23 -5,-49 -8,-73 0,-5 -2,-10 -5,-13 -3,-3 -7,-6 -12,-8 -1,0 -2,-1 -1,-2 0,-1 1,-2 2,-1 6,2 10,5 14,9 3,4 5,8 6,14 3,25 5,49 8,74 0,2 0,3 0,4 0,7 -2,12 -6,16 -4,4 -10,7 -17,8 -1,0 -3,0 -4,0z"/>
    <path class="fil14" d="M1423 168c-1,0 -2,0 -2,-2 0,-1 1,-2 2,-2 8,0 13,-3 17,-7 4,-4 5,-10 5,-18l-8 -73c0,-5 -2,-10 -5,-13 -3,-3 -8,-6 -13,-8 -1,0 -2,-1 -1,-2 0,-1 1,-2 2,-2 6,2 11,5 15,9 3,4 5,9 6,15l0 0 8 74 0 0c1,9 -1,16 -6,21 -4,5 -11,8 -20,8z"/>
    <path class="fil18" d="M1393 41c-15,-1 -23,1 -22,6 -1,2 6,5 19,9l3 -15z"/>
    <path class="fil28" d="M1421 169c-9,-1 -15,-6 -17,-15l0 0 -14 -93c-1,0 -2,-1 -5,-3 -3,-1 -8,-3 -14,-5l0 0c-2,-1 -3,-2 -4,-3 0,-2 -1,-3 0,-4 0,-2 1,-3 3,-4 2,-1 4,-2 7,-2 9,-2 16,-3 23,-3 7,-1 12,-1 16,0l0 0c6,1 11,3 15,6 5,3 8,7 11,13l-3 1c-3,-5 -6,-9 -9,-11 -4,-3 -9,-5 -14,-6l0 0c-4,0 -9,-1 -16,0 -6,0 -14,1 -22,3l-1 0c-2,0 -4,1 -6,1 -1,1 -1,1 -1,2l0 1c0,0 0,0 0,1 0,0 1,1 2,2 6,2 11,4 14,5 4,2 6,4 7,5l0 1 14 92c2,7 7,12 14,13l0 3z"/>
    <path class="fil39" d="M1421 166c1,0 2,1 2,2 0,1 -1,1 -2,1 -5,-1 -8,-3 -11,-5 -2,-3 -4,-6 -5,-10l0 0c-9,-60 -14,-90 -14,-93 0,0 -2,-1 -5,-3 -3,-1 -8,-3 -13,-5l-1 0c-1,-1 -3,-2 -4,-3 0,-1 -1,-2 0,-4 0,-2 1,-3 3,-4 2,-1 4,-1 7,-1 9,-2 17,-3 23,-3 7,-1 12,-1 16,0l0 0c6,1 11,3 15,6l0 0c4,3 7,7 10,13 0,0 0,1 -1,2 -1,0 -2,0 -2,-1 -2,-5 -5,-9 -9,-11l0 0c-4,-3 -8,-5 -14,-6l0 0c-3,-1 -8,-1 -15,0 -6,0 -14,1 -23,3l0 0c-2,0 -5,0 -6,1 -1,0 -1,1 -1,2l0 0c0,0 0,1 0,1 0,1 1,1 3,2 6,2 10,4 14,5 3,2 5,4 6,5l0 1c0,0 5,31 14,92 1,4 2,7 4,9 2,2 5,3 9,4z"/>
    <path class="fil40" d="M1422 166c0,0 1,1 1,2 -1,1 -1,1 -2,1 -5,-1 -8,-3 -11,-6 -2,-2 -3,-5 -4,-9l0 -1c-9,-59 -14,-89 -14,-92 0,-2 -6,-4 -16,-7l-2 -1c-2,-1 -4,-1 -4,-2 -2,-2 -2,-3 -1,-4 0,-2 1,-4 3,-4 1,-1 4,-1 7,-2l0 0c9,-1 17,-2 23,-2 6,-1 11,-1 16,0l0 0c5,1 10,3 14,6 4,3 8,7 10,13 0,1 0,1 -1,2 0,0 -1,0 -2,-1 -2,-5 -5,-9 -9,-11 -3,-3 -8,-5 -13,-6 -4,-1 -9,-1 -15,0 -6,0 -14,1 -23,2 -3,1 -5,1 -6,2 -1,0 -1,0 -1,1l0 0c-1,1 0,1 0,1 0,1 1,2 3,2l2 1c11,4 17,6 18,10l0 0c0,0 5,31 14,92 1,4 2,6 4,8 2,2 4,4 9,5z"/>
    <path class="fil41" d="M1422 166c1,0 1,1 1,2 -1,1 -2,1 -2,1 -5,-2 -8,-4 -10,-6 -2,-2 -3,-5 -4,-10l0 0c-9,-59 -13,-89 -14,-92 0,-1 -4,-3 -12,-6 -2,0 -5,-1 -6,-2 -2,0 -3,-1 -4,-2 -2,-1 -2,-3 -2,-4 1,-4 4,-4 10,-5 2,0 4,0 6,-1 16,-1 26,-2 33,-1l0 0c6,1 11,3 15,6 4,3 7,8 9,13 1,1 0,2 0,2 -1,0 -2,0 -2,-1 -3,-5 -6,-8 -9,-11 -4,-3 -8,-5 -13,-6l0 0c-7,-1 -17,0 -32,1l-6 1 -1 0c-4,1 -6,1 -6,2l0 1c-1,0 0,0 0,1 0,0 1,1 3,1l0 0c3,1 4,2 6,2 9,3 14,5 15,9l0 0c0,0 4,31 14,92 0,4 1,6 2,8 2,2 4,3 9,5z"/>
    <path class="fil42" d="M1422 166c1,0 1,1 1,2 -1,1 -2,1 -2,1 -10,-4 -11,-7 -12,-14 0,-2 0,-1 0,-2l0 0c-10,-59 -14,-90 -14,-91l0 0c-1,-2 -4,-4 -11,-6l0 0c-2,-1 -5,-1 -8,-2 0,0 0,-1 0,-1 -2,0 -4,-1 -5,-2 -1,-1 -1,-2 -1,-4l0 0c1,-3 3,-3 8,-4 1,0 1,0 2,0l1 0c5,-1 9,-1 13,-2 11,-1 19,-1 25,0l0 0c6,1 10,3 14,6 4,3 7,8 10,13 0,1 0,2 -1,2 -1,0 -2,0 -2,-1 -3,-5 -5,-8 -9,-11 -3,-3 -7,-5 -13,-6 -5,-1 -13,0 -23,1 -5,0 -9,0 -14,1 -1,0 -2,0 -2,0 -4,0 -5,1 -6,2l0 0 0 0c0,0 0,1 1,1 0,0 1,1 2,1 1,0 1,0 1,1l0 0c3,1 6,1 8,2 8,3 12,4 13,8l0 0c0,0 4,31 14,92 0,2 0,1 0,1 1,6 1,9 10,12z"/>
    <path class="fil43" d="M1422 166c1,0 1,1 1,2 -1,1 -2,1 -3,1 -9,-4 -9,-7 -10,-13 0,-1 0,-2 0,-3 -10,-60 -14,-90 -14,-91l0 0c0,-2 -4,-3 -10,-5 -2,-1 -5,-2 -8,-3 -1,0 -1,0 -2,0 -2,-1 -3,-2 -4,-3 -1,-1 -1,-2 -1,-3l0 0c1,-4 3,-4 7,-4 1,0 2,-1 3,-1l0 0c8,0 14,-1 19,-1 8,-1 14,-1 19,-1l0 0c6,1 11,4 15,7 3,3 6,8 9,13 0,1 0,2 -1,2 -1,1 -2,0 -2,-1 -2,-4 -5,-8 -8,-11 -4,-3 -8,-5 -13,-6 -5,-1 -11,-1 -19,0 -5,1 -11,1 -18,1 -1,1 -2,1 -3,1 -3,0 -5,0 -5,1l0 0 0 1c0,0 0,0 1,0 0,1 1,1 2,1 0,1 1,1 1,1l1 0c3,1 6,2 8,3 7,2 11,3 12,7l0 0c0,0 4,31 14,92 0,1 0,2 0,3 1,5 1,7 9,10z"/>
    <path class="fil28" d="M1139 142c1,-1 2,-2 3,-3 2,-1 3,-1 6,-2 3,-2 10,-4 18,-5 7,-1 15,-2 19,-3 12,-2 18,-7 20,-15 3,-7 2,-17 1,-28 -1,-5 -3,-9 -5,-12 -2,-4 -5,-7 -8,-9l1 -1c3,2 6,5 8,9 3,3 4,8 5,13l0 0c2,10 3,21 0,29 -3,8 -9,14 -22,16 -4,0 -11,1 -19,3 -7,1 -14,2 -18,4 -2,1 -4,2 -5,3 -1,1 -2,1 -2,2l-2 -1z"/>
    <path class="fil21" d="M1140 143c1,-1 2,-2 3,-3 1,-1 3,-2 5,-3 4,-1 11,-3 19,-4 7,-2 15,-3 19,-3 12,-2 18,-7 20,-15 3,-8 2,-18 1,-28 -2,-5 -3,-10 -6,-13 -2,-4 -6,-7 -9,-10l1 -1c3,2 7,6 10,10 2,4 4,8 5,13l0 0c1,11 2,22 0,30 -3,8 -9,14 -22,15 -4,1 -12,2 -19,3 -8,2 -15,3 -18,5 -2,1 -4,2 -5,2 -1,1 -2,2 -3,3l-1 -1z"/>
    <path class="fil21" d="M1141 144c0,-1 1,-2 3,-3 1,-1 3,-2 5,-3 3,-1 11,-3 18,-4 8,-2 15,-3 19,-3 12,-2 18,-8 21,-15 2,-8 1,-18 0,-29 -1,-5 -3,-10 -6,-14 -3,-4 -6,-7 -11,-9l1 -2c4,3 9,6 12,10 3,5 5,9 6,15l0 0c1,11 2,21 -1,29 -2,9 -9,14 -22,16 -3,1 -11,2 -18,3 -8,1 -15,3 -18,5 -3,1 -4,1 -5,2 -2,1 -2,2 -3,3l-1 -1z"/>
    <path class="fil21" d="M1141 145c1,-1 2,-2 3,-3 2,-1 3,-2 6,-3 3,-2 10,-3 18,-5 7,-1 15,-2 19,-3 12,-1 18,-7 20,-14 3,-8 2,-18 1,-29 -1,-6 -3,-11 -6,-15 -4,-4 -8,-8 -13,-10l0 -1c5,2 10,5 14,10 3,4 5,10 7,16l0 0c1,11 2,21 -1,29 -3,8 -9,14 -22,16 -4,1 -11,2 -19,3 -7,1 -14,3 -18,4 -2,1 -3,2 -5,3 -1,1 -2,2 -2,2l-2 0z"/>
    <path class="fil21" d="M1142 145c1,-1 2,-2 3,-2 1,-1 3,-2 5,-3 4,-2 11,-4 19,-5 7,-1 15,-2 19,-3 12,-1 18,-7 20,-15 3,-7 2,-17 1,-28 -1,-6 -4,-12 -7,-16 -4,-5 -9,-8 -15,-10l1 -2c5,2 11,6 15,11 4,4 6,10 7,17l0 0c1,11 2,21 0,29 -3,8 -9,14 -22,16 -4,0 -12,1 -19,3 -7,1 -15,3 -18,4 -2,1 -4,2 -5,3 -1,1 -2,1 -2,2l-2 -1z"/>
    <path class="fil52" d="M1143 146c0,-1 1,-2 3,-3 1,-1 3,-2 5,-3 3,-1 11,-3 18,-4 8,-1 15,-3 19,-3 13,-2 18,-7 21,-15 2,-8 2,-18 0,-28 -1,-7 -3,-13 -7,-17 -4,-5 -10,-9 -16,-11l0 -2c7,3 13,6 17,12 4,4 7,10 8,18l0 0c1,10 2,21 -1,29 -2,8 -8,14 -21,16 -4,0 -12,1 -19,2 -8,2 -15,3 -18,5 -2,1 -4,2 -5,3 -1,0 -2,1 -3,2l-1 -1z"/>
    <path class="fil53" d="M1144 147c0,-1 1,-2 3,-3 1,-1 3,-2 5,-3 3,-1 11,-3 18,-4 8,-2 15,-3 19,-3 12,-2 18,-7 21,-15 2,-8 1,-18 0,-28 -1,-8 -4,-14 -8,-19 -5,-5 -11,-9 -18,-11l1 -1c7,2 13,6 18,11 5,5 8,12 9,19l0 0c1,11 2,21 -1,29 -3,9 -9,15 -22,16 -4,1 -11,2 -19,3 -7,2 -14,3 -18,5 -2,1 -3,2 -5,2 -1,1 -2,2 -2,3l-1 -1z"/>
    <path class="fil54" d="M1144 148c1,-1 2,-2 3,-3 2,-1 3,-2 5,-3 4,-2 11,-3 19,-5 7,-1 15,-2 19,-2 12,-2 18,-8 20,-15 3,-8 2,-18 1,-29 -1,-8 -4,-14 -9,-19 -5,-6 -12,-9 -19,-11l0 -2c8,2 15,6 20,12 5,5 9,12 9,20 2,11 2,21 0,29 -3,8 -9,14 -22,16 -4,1 -11,2 -19,3 -7,1 -15,3 -18,4 -2,1 -4,2 -5,3 -1,1 -2,2 -2,3l-2 -1z"/>
    <path class="fil9" d="M1145 149c1,-1 2,-2 3,-3 1,-1 3,-2 5,-3 4,-2 11,-3 19,-5 7,-1 15,-2 19,-3 12,-1 18,-7 20,-14 3,-8 2,-18 1,-29l0 0c-1,-8 -5,-15 -10,-20 -5,-6 -13,-10 -21,-12l1 -1c8,1 16,5 22,12 5,5 8,12 9,21 1,11 2,21 0,29 -3,8 -9,14 -22,16 -4,0 -12,2 -19,3 -7,1 -15,3 -18,4 -2,1 -4,2 -5,3 -1,1 -2,2 -3,2l-1 0z"/>
    <path class="fil9" d="M1146 149c0,-1 1,-2 3,-3 1,0 3,-1 5,-2 3,-2 11,-4 18,-5 8,-1 16,-2 19,-3 13,-2 18,-7 21,-15 2,-7 2,-17 0,-28l0 0c0,-9 -4,-16 -9,-22 -7,-6 -15,-10 -23,-11l0 -2c9,2 17,6 24,12 5,6 9,14 10,23 1,11 2,21 -1,29 -2,8 -8,14 -21,16 -4,0 -12,1 -19,3 -8,1 -15,3 -18,4 -2,1 -4,2 -5,3 -1,1 -2,1 -3,2l-1 -1z"/>
    <path class="fil20" d="M1147 150c0,-1 1,-2 3,-3 1,-1 3,-2 5,-3 3,-1 11,-3 18,-4 8,-1 15,-3 19,-3 12,-2 18,-7 21,-15 2,-8 1,-18 0,-28l0 0c-1,-10 -4,-17 -10,-23 -7,-6 -16,-11 -25,-12l1 -2c9,2 18,6 25,13 6,6 10,14 11,24 1,10 2,21 -1,29 -2,8 -9,14 -22,15 -3,1 -11,2 -18,3 -8,2 -15,3 -18,5 -3,1 -4,2 -5,3 -2,0 -2,1 -3,2l-1 -1z"/>
    <path class="fil55" d="M1141 141c-5,4 -4,9 3,14 4,2 8,1 11,-1 -10,-1 -11,-8 -7,-12l-7 -1z"/>
    <path class="fil56" d="M1032 33c1,1 1,2 0,2 0,1 -1,1 -2,1 -5,-4 -8,-9 -9,-14 0,-3 0,-6 1,-8 1,-3 3,-5 6,-7 4,-2 10,-3 18,-2l0 0c7,2 14,3 22,5 13,2 27,5 44,8l0 0c6,2 12,3 19,4 23,4 49,9 67,16l0 0c7,2 13,5 18,9 5,3 10,8 14,14 0,1 0,2 -1,2 -1,1 -2,0 -2,0 -3,-6 -8,-10 -13,-14 -5,-3 -10,-6 -17,-8l0 0c-18,-7 -43,-11 -66,-16 -7,-1 -14,-2 -20,-3 -13,-3 -28,-6 -44,-9 -7,-2 -14,-3 -21,-5l0 0c-8,-1 -13,0 -16,2 -3,1 -4,3 -5,5 -1,2 -1,4 0,7 0,4 3,8 7,11z"/>
    <path class="fil57" d="M1032 33c1,1 1,2 1,2 -1,1 -2,1 -3,1 -4,-4 -7,-8 -8,-13 0,-2 0,-5 1,-8 1,-2 3,-4 6,-6 4,-3 11,-4 19,-2 17,3 35,7 52,10l15 3c5,1 11,2 17,3 23,4 48,9 66,15 7,3 13,5 18,9 5,4 10,8 14,14 0,1 0,2 -1,2 0,1 -1,1 -2,0 -4,-6 -8,-10 -13,-13 -5,-4 -10,-6 -17,-8 -18,-7 -43,-11 -66,-16 -6,-1 -11,-2 -17,-3l-14 -3c-18,-3 -36,-7 -52,-10 -8,-1 -14,0 -17,2 -2,1 -4,3 -5,5 -1,2 -1,4 0,6 0,4 2,7 6,10z"/>
    <path class="fil58" d="M1033 33c0,0 0,1 0,2 -1,1 -2,1 -2,1 -5,-3 -7,-7 -8,-11 0,-3 0,-6 1,-8 1,-2 3,-4 6,-6 4,-3 11,-4 21,-2 14,3 29,5 44,8 8,2 16,3 24,5 4,0 8,1 12,2 23,4 49,9 67,15 7,3 13,5 18,9 5,3 9,7 14,13 0,1 0,2 -1,2 0,1 -1,1 -2,0 -4,-5 -8,-9 -13,-13 -5,-3 -10,-6 -17,-8l0 0c-18,-6 -43,-11 -67,-15 -4,-1 -8,-2 -12,-2 -8,-2 -16,-3 -23,-5 -16,-2 -31,-5 -45,-8 -8,-2 -15,-1 -19,2 -2,1 -3,3 -4,4 -1,2 -1,4 -1,6 1,3 3,6 7,9z"/>
    <path class="fil59" d="M1033 33c1,0 1,1 0,2 0,1 -1,1 -2,0 -4,-2 -6,-6 -7,-10 0,-2 0,-4 1,-7 1,-2 3,-4 6,-5 4,-3 12,-4 22,-2 13,2 28,5 43,8 9,1 18,3 26,4l6 1c25,5 51,10 70,16 7,2 13,5 18,8 5,4 9,8 14,13 0,0 0,1 -1,2 0,1 -1,1 -2,0 -4,-5 -9,-9 -13,-12 -5,-3 -10,-6 -17,-8l0 0c-19,-6 -45,-11 -69,-15l-7 -2c-9,-1 -17,-3 -26,-4 -15,-3 -30,-6 -43,-8 -9,-2 -16,-1 -20,1 -2,2 -3,3 -4,5 -1,1 -1,3 -1,5 1,3 3,5 6,8z"/>
    <path class="fil60" d="M1033 33c1,0 1,1 1,2 -1,0 -2,1 -3,0 -3,-2 -5,-6 -6,-9 -1,-2 0,-4 1,-6 1,-2 3,-4 5,-6 5,-2 14,-4 24,-2 13,3 27,5 42,8 9,1 18,3 29,5 13,2 26,5 38,7 13,3 24,6 34,9 7,2 12,5 17,8 5,3 10,7 15,12 0,0 0,1 0,2 -1,1 -2,1 -3,0 -5,-5 -9,-9 -13,-12 -5,-3 -10,-5 -17,-7 -9,-3 -21,-6 -33,-9 -13,-2 -26,-5 -39,-7 -9,-2 -19,-3 -28,-5 -15,-3 -30,-5 -42,-8 -10,-1 -18,0 -22,2 -2,1 -3,3 -4,4 -1,2 -1,3 -1,5 1,2 2,4 5,7z"/>
    <path class="fil9" d="M1034 32c0,1 0,2 0,3 0,0 -1,1 -2,0 -4,-2 -6,-5 -6,-8 -1,-2 0,-4 1,-6 1,-2 3,-4 5,-5 5,-3 14,-4 25,-2 12,2 27,5 42,7 35,6 74,13 99,21 7,2 12,4 17,7 5,3 9,7 14,12 1,0 1,1 1,2 -1,1 -2,1 -3,0 -5,-4 -9,-8 -14,-11 -4,-3 -9,-5 -16,-7 -25,-8 -64,-15 -99,-20 -15,-3 -29,-5 -41,-8 -11,-2 -19,-1 -23,2 -2,1 -4,2 -5,3 0,2 -1,3 0,4 0,2 2,4 5,6z"/>
   </g>
  </g>
 </g>
</svg>
